<svg id="mySvg" xmlns="http://www.w3.org/2000/svg" xmlns:xlink="http://www.w3.org/1999/xlink" viewBox="0 0 1801 1146.85">
  <defs>
    <style>
    
      .cls-1 {
        fill:white;
        isolation: isolate;
      }

      .cls-2 {
        fill-rule: evenodd;
        transition: fill .5s;
      }

      
      .cls-3 {
        fill: #f5f7e2;
      }

      .cls-10, .cls-11, .cls-12, .cls-13, .cls-14, .cls-15, .cls-3, .cls-4, .cls-5, .cls-6, .cls-7, .cls-8, .cls-9 {
        stroke: #000;
        stroke-miterlimit: 10;
      }

      .cls-10, .cls-3 {
        stroke-width: 1px;
      }

      .cls-4 {
        fill: #77c4d5;
      }

      .cls-5 {
        fill: #c063a5;
      }

      .cls-6 {
        fill: #e96aa2;
      }

      .cls-7 {
        fill: #f38e40;
      }

      .cls-8 {
        fill: #f5d74d;
      }

      .cls-9 {
        fill: #c4d752;
      }

      .cls-10 {
        fill: #77c26b;
      }

      .cls-11 {
        fill: #439aa7;
      }

      .cls-12 {
        fill: #cea3a3;
        stroke-width: 2px;
      }

      .cls-13 {
        fill: #020202;
        stroke-width: 0.37px;
      }

      .cls-14 {
        fill: white;
      }

      .cls-15{
        fill: #fff;
      }

      .cls-20{
        fill:transparent;
      }

      #shadows{
        pointer-events: none;
      }

      #colors >*{
        cursor:pointer;
      }

     

      

      
      

      
    </style>
  </defs>
  <g id="shoes">
  <g id="sole" class="cls-1">
    <path class="cls-2" d="M1447,530c19,17.85,29.89,139.68,4,164-23.17,18.45-123.14,28.23-171,48-37.29,12.38-76.15,25.66-115,38-36.87,13.89-114.77,22.15-121,23s-49.57,3.08-75,4c-49.27,5.37-131-1.64-182-8-64.63-10.62-159.3-17.53-181-55-80.81,1-236.44-1.32-290-32-3.94-2.82-8.12-4.7-10-12-3.56-21.23-.65-58.65,0-75,.66-5,3.82-8.14,4-9,.17-12.14,6.25-16.09,11-19,1.37.35,1.62-1.34,3-1,2.77,3.14,16.4,5.58,24.26,7.1C398.35,613,474,616.86,541,619c30.53,1,61.12-1.36,91,2q.5,7,1,14c21.65,10.12,41.17,15.06,58,21,18.73-.09,36.41,2.94,58,9,14,.67,45,3.33,59,4l76,10h68c27.59,4,57.39-.38,86,0,29.15-5.71,64-.47,90-6,29.53-6.27,53.23-18.14,78-28,7.33-1.67,16.67-6.33,24-8,24.52-10,22-19.45,50-32,23.52-14.92,53.87-24.4,96-36,29.35-11,60-19.46,71-31Z"/>
  </g>
  <g id="upper" class="cls-1">
    <path class="cls-2" d="M713,440c24,19.76,44,54,40,74-25.82,19.63-46.63,20.29-69,22-16,1.33-31,5.67-47,7-4.67-.67-42.33,4.67-47,4-49.34,3.46-77.06,6-125-4-20.51-4.26-43.74-7-50-8s-27-4-27-4-9.52-1-15-3c3.44-5.93,7.47-5.63,42-15,14.72-2.78,26.84-11.63,39-16l39-27c3.76-3.77,3.24-3.27,8-6,36.9-12.24,85.31,1.05,120,8,18.09,3.62,27.41-1.35,39-2,4.74-.27,19.54-5.18,25-8C694.67,455,703.33,447,713,440Z"/>
    <path class="cls-2" d="M736,591c-33.1-6.51-29.67-8-53-18,17-1.64,40.39-15,53-20,13-6,23.33-9.7,36-16,14.37-7.26,30.58-21.2,40-30,9.6-1.5,27.13-10,45-9,4.61-1.7,9.83,1.17,17,2,2.67-2,14.08,1.05,24,3,35.37,11.57,45.67,16,82,23,34.15,6.55,59.13-19.1,75-24,7.39,2.21,16.54,17.47,21,23,8.51,10.55,20.58,28.55,20,47-4.09,16.93-15.84,13.64-44,20-19.53,4.41-38.31,6.44-56,9-5.33-.67-28.67,5.67-34,5-49-.37-86,8.77-130,4-23.84-2.58-36.81-4.1-65-11C766.67,596.67,736.33,593.33,736,591Z"/>
  </g>
  <g id="toevamp" class="cls-1">
    <path class="cls-2" d="M325,591s-4.95,5.88,4,8,78.84,13.39,101,15,69,4.94,79,4,16.65-1.23,23,0,10.68.77,16,1,55.21-.72,59,0,15.38.8,19,1a76.75,76.75,0,0,1,8,1c-3.38,4.35-3.31,5.52-3,9s3.17,7.69,5,8,20.16,6,25,8,16.29,4.06,23,7,15,3,15,3,6.8-.9,10,0,17.66,2.68,19,3,7.86,3.33,11,4,8.13-.84,13,1,73.62,6.67,78,8,49.47,6.09,53,6,69.55,2.16,73,2,41.09,1.43,44,1,32.5-3.15,38-3c9.13-.81,42.58-1,46-1s29.06-3,30-3,26.56-2.42,42-10c8.68-2.51,14.69-5.63,17-6s18-7,18-7,19.37-9.48,22-10,20.91-6.79,23-8,0-1.17,5-3a45.48,45.48,0,0,0,7-3l4-4s-6.44-41.56-54-84c-6-5.25-62.64-54.18-65-57s-12.53-11.83-13-13-10,6.55-16,8-17,6-17,6a97.89,97.89,0,0,0-19,8c-8.83,5.08-13,8-13,8l2,3s28.41,28.13,34,46,5.61,24.72,5,26-1.11,5.23-4,7-3.9,4.37-11,5c-7.1,2.57-28,5.47-36,8s-23,4-23,4-9.58.33-13,1-8.27,1.88-12,2-8,1.46-13,2-15.26,3.29-17,3-17.56-.19-21,0-17.38-.13-22,1-35.89,2.46-38,3-16.57,2.25-19,2-28.18-1.82-31-2-28.76-3.16-31-3-18.89-4.85-23-5-20.16-6-23-6-20.49-4.08-27-6-15.11-2.39-16-3-6.73-2.25-9-3-12.76-5.77-15-7-10-4-10-4-.79-.66,3-1,12.16-2.28,22-6c9.59-5.17,36-16,36-16s26-11.51,29-14,12-6,12-6,21.14-15.71,22-16,5-5,5-5l1-5s-3.52-4.63-3-7,5.69-8.45,6-10,5.23-5.45,7-7,6.51-6.17,8-6c2.46-2,1-2,1-2l2-2s-21.48-23.26-29-33-14.2-16.53-14-17-8-11-8-11h-3s-13.88,8.19-18,9a76.83,76.83,0,0,1-10,1s-7.77,1.85-10,3-10,4-10,4-1.84,1.12-5,3-5,1.46-7,3-4.66,1.32-5,3-1.72,2.59-1,5c7,2.9,32.46,34,36,46a63,63,0,0,1,5,16c0,5.43,2.29,8.19-2,12s-12,8-12,8-4.63,4.53-8,5-16,5-16,5-9.18,1.53-13,2-9,.8-11,1-9.58,2.11-14,2a115.58,115.58,0,0,0-18,2c-1.87.55-16,3-16,3s-9.15.59-12,1-14.63,1.18-19,2-24.72,2.76-30,3-23.85.55-27,1-22.12,1.31-27,1-26-2-28-2-14.56-2.07-16-2-11.28-2.38-13-2-30.65-6.34-32-6-25.53-3.34-33-5a63.23,63.23,0,0,0-16-1l-8-3-9-1-4,1s-5.69,4.11-8,6a9.31,9.31,0,0,1-5,2l-1,3-2,1a59.68,59.68,0,0,1-5,7c-1.86,1.93-5.86,5.62-7,8s-3.79,9-5,11S328.14,582.31,325,591Z"/>
  </g>
  <g id="logo" class="cls-1">
    <path class="cls-2" d="M907,341c1.67.33,4.33-3.33,6-3,.33,1,.67,6,1,7-.6,4.4.78,6.47,1,9,.16,6.5,1.11,17.16,1,18-3,2.56-4.35,4.72-7,8-.67,2-4.33,4-5,6-1,1.21-5.36.76-7,1-3.13,2.5-9.14,7.14-12,10-4.92,4.92-5,7.14-8,13-1.34,7.14-.3,6.17-2,12a56.43,56.43,0,0,1-8,9c-1.75-.63-6,1.81-7,1-.37-4.26.26-4,0-6-.08-8.4,1.51-22.4,4-29a59.34,59.34,0,0,1,7-14c2.67-6.27,6.33-9.91,10-15C888.49,357.62,898.23,350.46,907,341Z"/>
    <path class="cls-2" d="M1442,373c2.59,6.83,2.11,11.61,2,18-1.14,11.06-.15,9.33-3,18-1.24,3.77-4.69,8.25-6,12-2.67,7.66-10.6,19-15,24-7.63,8.75-11.77,12.78-20,21-4.83,4.83-6,7.54-12,11-4.31,2.5-8.69,7.51-13,10-5.07,2.93-11.25,8.17-16,11-7.16,4.26-13,7.72-20,12s-12.16,7.65-20,11c-5.56,2.38-11.76,6.4-17,9-14.5,7.19-22.42,14-45,14h-12c-6-2-13.75-5.12-18-9-5.25-4.8-11.93-14.66-16-20-7.57-9.91-19.32-51.69-13-71,1.29-3.94,2.23-9.76,4-13,2.69-4.91,4.24-7.37,7-13a70.8,70.8,0,0,1,8-12c2.27-2.71,3.92-5.05,6-8,1.94-2.75,4.88-6.15,8-8,4.77-2.83,6.94-5.23,12-6,.82,17.86-.11,28.28,4,46,2.56,8.77,7.3,17.44,11,22,5.26,6.48,13.18,13.47,23,17,20.66,0,30.32-3.72,52-10a124.74,124.74,0,0,0,15-7c6.85-3.83,15.09-6.71,22-11,11.18-7.26,16.67-10.33,24-18C1409.45,407.55,1427.28,389.14,1442,373Z"/>
  </g>
  <g id="quarter" class="cls-1">
    <path class="cls-2" d="M941,363c-17.37-1.07-25,8-25,8s-.49-6.61-1-13c-.51-3.75-.39-8.4-1-12-.23-2.61-.7-6-1-9-23.29,19.32-34.54,29.63-49,62-4.12,9.11-3.76,24.77-4,33-7.15,2.24-17.88,6.71-20,14-1.55,5.34-.59,12.63-1,17s-2.2,5.85-6,6c-3.52-4.78-10.06-9.69-14-14-6.81-7.44-12.3-14.43-19-22-6.06-6.85-12.5-14.54-18-25,2.17-2.3,7.22-4.12,9-7,4.54-7.33,11.89-18.77,19-23,8-4.77,19.42-9.52,28-14,7.43-3.88,17.09-13.09,23-19,4.59-4.6,7.55-11.72,12-17,12-14.21,23.85-20.43,40-27,1.93,2,6.12,7,8,9,5.33,7,14.18,21.51,18,29,.53,1.53,2.84,6.48,3,9C940.67,351.34,941.15,358.31,941,363Z"/>
    <path class="cls-2" d="M1243,384c-14.57,4.33-21.48,15.64-29,27-7,10.52-13.53,22.61-17,37-2,8.31-1.37,21.52,0,27,2,7.82,2.48,13.18,5,20,6.06,16.43,16.67,36.17,31,45,38.86,14,68.9-9.5,89-20,5.47-2.86,20.62-11.6,26-15,9.11,15.51,17,52,14,67-11.45,2.82-38,9.53-55,18-6.72,3.35-15.52,7.18-22,11-5.16,3-10,5.78-15,9-5.56,3.61-10.14,7.71-18,11-9.5-26.19-18.5-45.36-36-65-5.71-6.41-12.65-12.19-19-18-2.35-2.14-7.63-6.89-10-9-2.94-2.61-5.12-3.37-8-6-1.64-1.5-4.34-4.52-6-6-2.94-2.61-6.12-4.37-9-7-2.35-2.14-5.63-4.89-8-7-2.94-2.61-6.12-5.37-9-8-8.28-7.58-18.88-18.23-27-26,2.65-2.56,5.79-5.13,7-8,8.27-17.62,16.92-29.55,22-32,11.5-4.76,14.63-7.13,27-16,10.91-9.21,13.79-13.95,21-25,1.21-5,5-7.63,8-11,3.69-4.19,4.14-5.35,9-8,2.72-1.48,5.81-4.24,8-5,3.15-2.43,7.33-3.38,10-5,3.32-2.69,5.17-3.48,9-6,12.58,8.9,19,20.59,26,29,2.75,3.29,5.3,7.38,10,15,3,6.14,8.54,12.44,12,18,1.89,3,4,7.17,6,10,6.3,8.89,17.51,28.29,23,37-10.64,5-24.57,7-39,6-10.2-6.6-18.71-11.27-24-19C1244.42,433.55,1243,410.44,1243,384Z"/>
  </g>
  <g id="heelcap" class="cls-1">
    <path class="cls-2" d="M974,264c2.11,1.08,2.51.27,5,2,11,7.63,26.53,22.46,32,28-3,3.92-4,10.71-5,17-3.23,1.07-2.14.58-6,3a105.4,105.4,0,0,1-7.64,8.11c-6.08,3.95-9.76,8-13.36,11.89-9.4-3-15.8-3.75-25,0-6.67,2.72-12,12-12,12-4.71-11.24-16-32.6-29-46,2.82-1.85,5.7-2.1,11-6,23.44-12.1,25.62-20.71,41-27C969.38,264.77,970.93,263.46,974,264Z"/>
    <path class="cls-2" d="M1298,300c2.72,0,3.6,3,5,4,7.31,8.55,8,12.89,12,20,7.6,13.66,30.66,49.77,48,56-2.33,12.57,4,16,9,21,2.67,0,7.33,1,10,1,11.64-2.77,13.82-6.41,22-15,1.94-2,8.79-10.93,10-14,1.52-3.85,2.88-8.89,4-11-.39.46,6.72,4.21,9,6,5.43,5.6,3.25,10.87,7,13-6.35,6.13-7.8,8.43-14,16a185.86,185.86,0,0,1-17,18c-6.42,5.66-10.67,9.21-17,15-9,8.23-20.57,13.07-32,19-5.52,2.86-29.51,15.73-36,13-4-6.77-9.45-17.14-16-27-12.87-19.38-25.35-40-39-59a209,209,0,0,0-21-24,236.47,236.47,0,0,0,35-29C1283,317,1292.15,306.11,1298,300Z"/>
    <path class="cls-2" d="M1362,572a53.51,53.51,0,0,0,0-14c-.14-9.24-1-13.15-2-21-1.41-10.71-6.57-20.79-11-32,12.33-8.18,32.76-22.22,43-31,19.41-16.63,41.38-44.44,51-70,2.44,16.67,2.8,64.51,3,79,0,9.33,1,19.67,1,29,1,3.94,2.58,12.48,1,19-.83,3.43-1.37,7-3.7,8.75-12.54,9.53-29,13.76-46.3,20.25C1388.31,563.65,1374.13,571,1362,572Z"/>
  </g>
  <g id="collar" class="cls-1">
    <path class="cls-2" d="M1011,294s-30.22-27.4-34-31-3,1-3,1l-1-5-1-3v-3s7.56-31.38,35-44,59-11,59-11,26.27.61,44,10c11.18,12.32,11.24,12.54,12,20a8.76,8.76,0,0,1-2,6l-7,8-5,7-2,3s-22.61-10.17-35-12-26.53-.27-32,2a35.15,35.15,0,0,0-12,9c-1.15,1.63-5.24,9.05-5,12s-.5,9.37,1,10,2,4,2,4-1.85,3.23-4,4S1013.48,290.16,1011,294Z"/>
    <path class="cls-2" d="M1061,308h9s13.6-16.33,17-18-16.54,1.43-18,1-3,4-3,4l-2,3Z"/>
    <path class="cls-2" d="M1275,263s12.83-17.11,15-19,22.29-11.43,29-12,40.6-2.43,49-2,27,.83,29,2,12.11,2.43,17,10,3.62,13,5,17,3.14,16.92,4,23,4.67,24.27,5,26-3.63,21.22-5,25-2.9,5.77-4,10a60.45,60.45,0,0,0-1,16c.39,3.14-1.67,11.68-3,13s-2,8-10,14c-8,8.95-9.83,11.34-13,12s-2.44,5.34-12,4-10.73-2.71-14-7-2-8.27-3-11,0-4,0-4-35.9-24.43-52-66c-4.92-6.78-9-13-9-13l-4-5-7-7-7-10-5-6Z"/>
  </g>
  <g id="eyestay" class="cls-1">
    <path class="cls-2" d="M500,464s21.55-5.19,32-5,19.09-.1,28,2,34,5,34,5,16.19,4.18,19,5,30.61,1.48,34,1,20.24-3.4,27-6,20.59-12.56,26-16,12-10,12-10l2-4s13.92-7.71,18-10,8.59-5.8,14-6,7.46.31,12-1,8.34-1.58,12-4,10-6,10-6,6.9-1.25,9-5,4.88-9.62,8-13,7.35-8.9,12-12,14.21-9.08,18-10,16.17-7.65,19-10,11.23-12,15-15,8.52-10.5,9-12,7.77-12.05,16-17,20-12,20-12l7-3,6-3s20.54-12.88,26-16a159.39,159.39,0,0,0,15-10c2.78-2.14,7.59-5.54,10-7s5-3,5-3l-2-3-7-6a96.27,96.27,0,0,0-10-8c-4.34-2.81-14.42-7.47-19-11s-14-7-14-7,12.37,6.69,13,15-1,12-1,12-3.51,2-5,2-3.89,1.78-6,0-3.38-2.72-5-3-17-6-17-6l-2,2-3-3-17-4-10-1-6,2s8,8.37,8,11,3.4,7.35,5,11,2.79,9.63,4,11,2.69,5.41,3,7,1.6,3-1,5-3.79,3.1-5,3-5.47.7-8,0a15.09,15.09,0,0,1-3-1S850.58,273,847,270s-11-11-11-11l-4-1s-11.76,6.15-14,7-.25-1.36-2,2-4,11-4,11,7.93,7.6,9,9,8.21,8,9,11,6.59,17.23,7,19,1.7,8,0,10-3.88,3.41-7,3-3.86-.78-8-3-9-7-9-7l-13-8s2.48,16.2,1,19-5,13-5,13-5,4.76-6,6-.68,3.25-4,3-5.66,1.26-9-1a43.17,43.17,0,0,1-6-5s-2.45-4.31-2-8,1.45-8.87-1-15-5.73-8-8-6-4,4.92-6,6-4.6,2.6-6,5-2.89,5.89-5,7a7.29,7.29,0,0,0-3,3s11.58,5.86,13,8,6.07,6.33,6,11,1.77,11.11,1,13-1.62,6.89-3,8-2.41,2.79-4,3-7,0-7,0l-7-4s-1.28-7.58-3-8-11-8-11-8l-7-3h-3l-11,4s-.21-2.28,0,2,4.48,13.09,4,15-.12,4.36,0,9,0,8,0,8,.5,4-3,5a26.72,26.72,0,0,1-6,1l-4,1-3,1-9-8-10-8-5-1-5,11v3l10,8s6.35,7.3,6,9-2.15,6.78-2,8a33.73,33.73,0,0,1,0,4s1.16.47-1,2-7,5-7,5a5.45,5.45,0,0,1-3,1c-1.78,0-1.71,3.36-4,2s-8-3-8-3l-7-3-2,3a10.46,10.46,0,0,0-4,0c-2,.44-4.24-1.93-9-3s-14.81-2.52-17-3-20.75-3.62-25-4-20.28-1.32-27-1-15.45-1.11-18-1-6,3-6,3h-4s-36.35,22.82-37,25S498.5,462.2,500,464Z"/>
    <path class="cls-2" d="M563,389c-5.3,2.41,11,7,11,7l6-7s10.82-2.62,13-4,19-6,19-6l2-6-17,1S566.31,387.5,563,389Z"/>
    <path class="cls-2" d="M626,353s20.1-10.72,22-12,10-3,10-3l10-1c-4.21,3-13.79,9.85-17,12a49.17,49.17,0,0,1-8,4S630.51,351.8,626,353Z"/>
    <path class="cls-2" d="M695,305a93.12,93.12,0,0,1,17,1l9-1a27.88,27.88,0,0,0,3-1c1.67-.66,6-2,6-2h6l5-9s-27,1.57-29,4-8,4-8,4S687.18,305.46,695,305Z"/>
    <path class="cls-2" d="M735,267l26-11s8.52-5.23,12-3,12,3,12,3,1.31,1.66,0,3-6,6-6,6l-18,2c-5,.56-9,1.64-13,2s-14,0-14,0Z"/>
    <path class="cls-2" d="M868,431c3.33.83,11.67,3.43,14,3a35.71,35.71,0,0,1,7,0l5-3h7s7.51-2.54,10-6,11-8.53,12-9,7-3,7-3a35.46,35.46,0,0,0-11-3c-5.81-.49-11-1.21-15-1s-6.94-2-10,0-8.52,4.87-10,6S866.8,430.7,868,431Z"/>
    <path class="cls-2" d="M855,461c.76,3.84,2.42,9.65,4,9s5-4,5-4,23.25-4.43,26-4,16.21,3.46,20,3,15.46,2.85,20,3,13.33,1.34,16,3,9.9,1.94,12,3,7-1,7-1-1.52-.95,1-2,20.32,8.81,26,12,11.78,5.8,17,6,10,4.12,13-1,2.46-8.57,2-10-6-10-6-10-13.78-16.9-16-18,10.78-22.95,13-23,11.65,5.22,14,8,4.62,8.79,8,13,7.8,6.89,11,6,7.19-.41,7-2c-.19-5.2,2-8,2-8s3.28-5,4-8,3-2.95,2-6-6.7-17.82-10-19-4-2-4-2l3-5s16.36,5.57,18,9,6.63,9.34,10,13,11.5,11.23,13,10,6-2,6-2l2-5s-4.88-31.17-9-36-13-13-13-13l-1-2,4-2s7,3.74,9,6,7.68,7.82,11,10a73.32,73.32,0,0,1,7,5c.83.79,7,5,7,5s5.74,4,7,2,2.33-1.49,3-4,1.33-8,1-9-3-19-3-19l-7-10,4-5s11,7.88,13,9,13,9.65,15,12,7.86,4,9,5,5.65,3.54,7,3,4-4,4-4,2.44.76,2-3,2.88-28.47-32-54c-.31-3.59,7.78-9.2,9-10s10-5,10-5l6-6s14,5.7,16,9,5.7,10.77,7,12,4.38,12.54,6,15,3.17,7,6,7,8,2.13,8,0,3-3,3-3l1-5s8.41-33.31-10-48c1.74-1.16,16.51,2.84,21,4s19,6,19,6,4.76,4.12,7,4,5,0,5,0l4-5,6-2s4-1.35,3-4,.63-12.61-2-15a149,149,0,0,0-16-11,84.4,84.4,0,0,0-13-3c-2.2-.11-11-3-11-3s13-1.88,19-1,24.26,3.55,38,18c12.54,9,13,13,13,13l6,6s-3,5.12-4,6-7.42,7.2-9,9-27.56,26-29,27-15.42,11.31-17,12-7.59,5.2-11,8-7.77,1.78-10,4-6.55,4.07-8,6-8.83,5.94-11,11-7.11,9.71-9,14-16.26,18.87-19,20-12,7.85-14,9-9.21,2.84-11,5-14.76,15.64-20,31c-9.45,11.15-26.1,17.33-28,18s-9.87,1.92-14,4-15.23,8-19,10-12,5-12,5l1,5a28.57,28.57,0,0,0-11,6c-4.63,1-17,8-17,8a58.54,58.54,0,0,1-16,7,158.68,158.68,0,0,1-25,4,39.58,39.58,0,0,1-17-3c-8.4-3.23-15.47-3.16-19-5s-17-6.45-22-7-25.94-9.82-32-10-18.58-4.22-26-4-19,.88-23,1-15.2.57-18,2a55.76,55.76,0,0,1-12,4,13.08,13.08,0,0,1-6,0l-2-7s-.17-12.62,24-28a68,68,0,0,0,7-8l4-1,5,1S854.23,457.16,855,461Z"/>
    <path class="cls-2" d="M948,364s9.39-10.08,13-11,19,5,19,5l13,7s10.7,4,11,4c-.9,2.1-14,8-20,11C972.27,378.2,954.31,365.2,948,364Z"/>
    <path class="cls-2" d="M992,338s12.69.24,17,1a112.17,112.17,0,0,0,12,1l13,2s-8.73,6.43-12,6-7,3-7,3S1001,343.71,992,338Z"/>
    <path class="cls-2" d="M1019,308s7.65-12.05,10-13,11,0,11,0,22.37-2.65,24-3-3,14-3,14-9.39,5.11-12,5-5,3-5,3l-2,3-2,1s-10.44-4.7-13-5a65.07,65.07,0,0,1-8-2Z"/>
    <path class="cls-2" d="M1419,363s8.92,4.3,10,7l4,10s3.9-.46,4-2,4-5,4-5l2-3-2-5s-7.82-47-13-61c-1.17,14.33-1.32,19.89-3,25s-4.81,10.12-5,11-1.56,4.85-2,7-.06,5.34,0,7S1419,359.49,1419,363Z"/>
  </g>
  <g id="tongue" class="cls-1">
    <path class="cls-2" d="M1033,360c10.79-.2,27,6,27,6l6,4a1.09,1.09,0,0,0,2,0c1.1-1.52,6.18-6.95,7-8s2.9-3.86,4-5,9-4,9-4h8s12.3.9,15,3,6,5,6,5l3-4s-9.89-8.1-14-9-11.1-2.66-13-3a32.43,32.43,0,0,0-6,0s-5.43-.43-8-1-17.38-.21-22,0-10.07-.82-11,0-5.5,1.77-8,6S1033.41,355.72,1033,360Z"/>
    <path class="cls-2" d="M1071,307s13.12-16.05,16-17,8-2,8-2h7s10.87,2.3,12,3,14.73,6,23,7,13.58,5.3,15,5,8,2,8,2h2s.14,2.56-3,4-14,7-15,8a17.62,17.62,0,0,0-4,5,10.09,10.09,0,0,0-1,4S1122.53,308.63,1071,307Z"/>
    <path class="cls-2" d="M1203,260s21.58-19.93,25-21,7.62-2.32,10-2,9,3,9,3l15,11c1.43,1.63,5.27,3.31,7,5s4.2,3,5,5,3.12,8.07,4,9,9,13,9,13-7.86-6.47-14-11-12.29-6.21-14-7a45.81,45.81,0,0,0-12-3c-4.78-.44-15.32-1-20-1C1210.5,262,1203,260,1203,260Z"/>
    <path class="cls-2" d="M887,219s26.3,2.47,34,5,18,9,18,9l16,10,6,4s-16.81-27.61-23-32a184.43,184.43,0,0,0-17-10l-6-5h-7S891.15,208.27,887,219Z"/>
    <path class="cls-2" d="M781,264s6.64-7.64,8-8,31.25.64,35,1a37.13,37.13,0,0,1,6,1s-6.38,5.48-7,5-6,1-6,1l-2,3S791.1,264.21,781,264Z"/>
  </g>
  <g id="labels" class="cls-1">
    <path class="cls-2" d="M1106,251s18,6.3,20,8c6-.45,55.11.91,65,1s13-1,13-1,8.21-5.56,11-9,8.3-7.65,12-10,10-4.42,11-4a39.23,39.23,0,0,0,5,1s-29-20.07-56-22-37.5-2.52-43-1-13.9,5.72-18,11-8.52,11.81-10,13S1111.84,245.16,1106,251Z"/>
    <path class="cls-2" d="M886,218s-63.8-1.83-71,0-10,1-10,1,11.71-20.87,28-30,12-9.65,22-10,27.14,3.29,33,7,24.32,12.46,26,13-5,1-5,1a30.53,30.53,0,0,1-7,4,21.87,21.87,0,0,0-9,6C889.94,213.14,887.54,216.46,886,218Z"/>
  </g>
  <g id="plaque" class="cls-1">
    <path class="cls-2" d="M864,454s-3.67.06-5,2a11.7,11.7,0,0,1-3,3s-1.15,3.06-1,4,.38,5.7,2,6a8.44,8.44,0,0,0,3,0l4-3s8.35-1.94,10-2,7.73-1.31,11-1,9,.91,11,1,10.28.64,12,1,5.35.54,10,1,9.52,2.12,13,2,4.68-1,7,0a50.82,50.82,0,0,0,9,3c2.78.51,5.49,1.28,8,2a30.54,30.54,0,0,0,7,1c1.5,0,2.13-.4,3-2s2.24-2.46,1-4-.77-2.57-4-3-10.57-2.15-11-2-3-1-3-1,8.46-13.54,16-17c3.29-.46,9-2,9-2l2-1s-9.35-4.07-12-4a22,22,0,0,1-6-1s-10.94-4.34-12-4-15.64-1.08-16-1-21.46-1.45-24-1-8,1-8,1l-4-1-4,2s-2.53,1.77-1,2,5,3,5,3a1.13,1.13,0,0,1,0,2l-4,3-3,4a12.33,12.33,0,0,0-4,2c-1.3,1.21-1.23,2.89-3,3a68.56,68.56,0,0,0-8,2S865.73,455,864,454Z"/>
    <path class="cls-2" d="M542,419s-3.25,3.13-2,5,5,2,5,2,14.83,1.13,21,1c8.84-.32,30.63,1.7,33,2s13.41,2.45,16,3,12.33,1.83,15,3,7.79,3.11,10,3,5-3,5-3a6.36,6.36,0,0,0,1-2c.6-1.6-3-4-3-4s-4.62-1.44-7-2a55.26,55.26,0,0,1-6-2l-2-2,2-4s2.38-2.56,3-3,1.66-2.12,4-5,4-5.11,5-6,6-2,6-2l1-2s-1.33-.06,3,0,10,3,10,3l1-2s-17.55-10.84-79-14c-3.63,1-7,5-7,5l-2,2s-.6,2.14,0,2,3,1,3,1l-3,3s-3.54,5.26-5,6a14.68,14.68,0,0,0-4,3c-1.08,1.17.62,4.44-3,5s-5,2-5,2h-5S546.58,416.71,542,419Z"/>
  </g>
  <g id="shoelaces" class="cls-1">
    <path class="cls-2" d="M538,389s-15.41,8.91-17,20,1,17,1,17l8,3s4.45,1.3,6,1,6-3,6-3-.57.72-1-2a34.85,34.85,0,0,1,0-7,12,12,0,0,1,5-1c2.82.06,12,0,12,0l6-3s11.15-14.18,12-16-2-2-2-2-1.58-.05-5-2a25.51,25.51,0,0,1-6-5S556.41,384.33,538,389Z"/>
    <path class="cls-2" d="M585,388s23.26-7.41,25-8,3-6,3-6l-16-1s-4.84,2.69-7,4-6,3-6,3,3.2-14.83,13-22,11-3,11-3l2-1s9.69-29.56,31-40c5.92-5.21,18.92-10.82,23-12s26.57-26.54,46-32c6.24-8.76,28.55-36.57,48-43,17.52-8.63,36-9.1,39-9s13,0,13,0,14.5.73,19,0,43.13-.65,48,0,15.67,1.35,17,1,12,1,12,1,10.56,2.76,13,4,9.4,4.16,11,6a61.37,61.37,0,0,1,6,8c1.1,2.08,0,13,0,13s2.79,1.25-3,3-9,0-9,0l-4-2s-1.54-.25-5-1-5.68-.23-8-2a10.7,10.7,0,0,0-5-2s-27.65-8.18-32-7-5,3-5,3,4.48,4.83,6,7a54.17,54.17,0,0,1,4,8c.82,1.87,4,9,4,9l4,12s1.41.47,0,4-2.47,5.45-4,6-8,1-8,1a25.68,25.68,0,0,1-4-2c-1.9-1.2-17-17.56-20-19s-5.88-5.5-9-8-9-4-9-4-34.14-1.92-39-2-3.52.55-9-1a68.77,68.77,0,0,0-9-2s-29.33,13.46-32,13-5,3-5,3l5,1s32.78-3,38-4,14.14-.37,16,0,19.18,1.44,20,2a3.27,3.27,0,0,1,1,2s-2.17,3.19-2,5a11.63,11.63,0,0,0,3,7c2.39,2.78,7.17,8.78,10,11s5.67,7.14,7,11,3.92,13.65,4,17,.4,6-1,7a11,11,0,0,1-7,2c-3.19-.15-3.74-.9-8-3s-7.57-5.38-11-8a87,87,0,0,0-10-6s6,14.86-1,25c-3.14,10.14-7,11-7,11l-4,5s-3.64,1.42-6,1-9.75-6-11-8-.55-9.47-2-14-1.53-13-3-14-4.48,1.05-6,1-6.79,3.8-8,6-4.67,2.85-5,5-7,8-7,8,6.66,1.84,9,5,10,9,10,12,1.14,7.21,1,11a44.58,44.58,0,0,1-2,11,9.06,9.06,0,0,1-4,5c-1,.44-8,0-8,0s-2.7.43-5-3-5.23-8.24-5-9-6.84-3.35-11-7-5.44-3.8-7-4-7,1-7,1l-7,4s-1.65,2.63,1,6,2.8,7.37,3,11,.63,10.35,0,14,2.47,3.33-1,5-10,4-10,4l-5,2s-12.78-13.93-20-16c-3.65-5.64-4-2-4-2l-5,12,.77.82c1.5,1.59,4.77,5,6.23,6.18,1.92,1.54,8.11,8.37,9,11s-1,6.49-1,8,.5,5.82-1,6-4.18,3.5-6,5-4,3-4,3h-6s-9.29-4.92-11-5-3-4-3-4-10.18-4.86-12-5-5-2-5-2,5-9.57,6-11,8-9,8-9,6.14-3.4,7-3,8,3,8,3h3l1-2-2-1-8-3-7-2S598.48,387,585,388Z"/>
    <path id="transparent" data-name="transparent" class="cls-20" d="M630,351l13,2,12-7,9-8s-6.44-.92-9,0-11,6-11,6Z"/>
    <path id="transparent-2" data-name="transparent" class="cls-20" d="M695,303s17.51,4.39,20,4,6,.39,8,0,9-4,9-4l4-2,3-7s-11.13,1.34-13,1-12,1-12,1l-6,4Z"/>
    <path class="cls-2" d="M839,462s7.65-2.18,9-2,9,0,9,0l2-6s6.18.46,8,0,10-2,10-2l13-9,3-4-5-6-2,1s-5.23.18-7,0a54.64,54.64,0,0,1-7-2,38.59,38.59,0,0,0-7-1c-2.62,0-10.45,1.43-13,3s-10.45,7.5-12,11-.8,5.79-1,7S839,462,839,462Z"/>
    <path class="cls-2" d="M905,431s36.28-1,44,3,11,4,11,4l9,2,6,2-3,2s-3.8-.65-5,0a12.68,12.68,0,0,1-3,1l-5,4-5,5-4,6-1,2s11.12,1.43,13,2,4,5,4,5,17.48,10.18,20,11,14.38,7.07,15,7,8.55,2.49,10,2,4.16,1.89,7,0,5.15-1.29,6-5-.93-6.7-1-8-14.54-20.24-17-23a38.31,38.31,0,0,0-4-4s8.48-20.79,12-22,8,2,8,2,9.11,7.14,10,10,5.42,11.36,7,12,6.46,3.61,9,3,5.62-2.17,6-2,1.52-2.92,2-4,.13-2.91,1-4,1.11-.35,3-5,1.59-7.06,2-9-6.11-17.11-8-18a18,18,0,0,1-4-3l1-4,9,2s7,3.44,9,5,5,6.93,6,8,9.17,11.75,10,12,6.61,3.38,8,4,5.2-1.12,6-2,2-5,2-5-4.94-30.29-7-33a72,72,0,0,1-4-6l-9-9-3-2,3-3s4.9.86,6,2,5.82,5.43,8,8,12,10,12,10a5.31,5.31,0,0,0,3,3c2.2.75,9.23,6,10,6s2.69-2.5,4-3,3.12-3.29,3-6-1.18-13.66-1-15-2-9-2-9l-6-9-5-6s-8.9-3.15-10-3-10.65-1.63-14-1-8.89,2.22-9,3-3.52,4.33-4,5-6,8-6,8l-3,1s-7.88-4.89-12-6-7.85-3-10-3-10-1-10-1l-3-1,10-14a3.68,3.68,0,0,1,3-2c2.39-.38,3.34,1.15,4,1s12-1,12-1l22,1s7.31-.37,9,0,13,2,13,2,4.87,1.94,7,4,7.76,5.22,8,6,17.57,14,20,15,10.22,8.46,12,9,7,4,7,4a31.8,31.8,0,0,0,3,2c.69.3,1.73.75,2,0a1.76,1.76,0,0,1,1-1s4.62-2.06,5-3,1-3,1-3,0-26.35-14-38c-13.52-14.1-21.12-17.79-23-19s-18.63-13-50-14-29,1-29,1-3.79,2-5,2h-2l-3,2-4,4s-1.13,1.53-2,1-5.78-2.75-9-4-6.66-1-8-2-3-2-3-2,3.53-8.33,6-11,.11-3.06,4-4,23.6-1.39,32-3a137.12,137.12,0,0,1,17-2c3.11-.31,15.07-1.42,18-2s7.13-.46,8,0,24.56,8.45,28,9,15.71,4.13,17,4,9.69,3.16,13,3,10.11,2.05,13,4,7.94,7.91,9,10,5.53,11.86,6,13,3.49,15.06,6,15,4.15,2.66,7,2,4.53-.37,5-2a47,47,0,0,1,3-6s2.59-11.5,3-13-1-13.57-1-14-2.85-11-5-14a64.89,64.89,0,0,0-5-6l-1.37-1.37L1201,291s10.32,2,13,2,15.68,4.4,18,5,11,4,11,4,2.86,2.94,6,3,4.59,1.51,5,0,0-3.17,1-4,4.38-1.77,6-2a6.31,6.31,0,0,0,4-2c1.12-1.2,2.11-12.55,1-15a17.64,17.64,0,0,0-9-9c-5.21-2.18-8.41-6.33-11-6s-14-3-14-3l-8-3s-59.59-3-96-2c-19.46-7.57-24.93-7.81-27-9s-8.42-3.31-9-4-14.2-4.42-17-5-8.29-3.07-19-2-22.43,3.05-26,8a39.87,39.87,0,0,0-6,11c-.89,2.69-2.85,5.61-1,10a28.58,28.58,0,0,1,2,9l-3,4s-6.08,6.32-10,11-5.21,8.08-5,9-1,10-1,10l-4,1S980.57,331,980,333s-2,1-2,1a8.26,8.26,0,0,0-5-2c-3-.1-8.22-.38-11,0s-9.34,2.06-13,6-7,8-7,8-1,7.47-1,9v6l1,2s-6-.65-9,0-8.34,2.93-11,4-4.17,2.55-7,6l-9,11-3,3s-5.62.42-6,0-15.88,14.23-18,18-2.83,8.89-3,10,0,7,0,7,13-12.6,16-13,8.13.4,9,0,12-1,15,0,11.83,4.38,13,4,6,1,6,1l-10,2s-3.89,3.52-6,4-7.33,3.93-9,5S904.3,430.48,905,431Z"/>
    <path id="transparent-3" data-name="transparent" class="cls-20" d="M949,364s21.66,10.75,25,13,6.2,3.05,8,3,16.63-6.69,19-8a13.29,13.29,0,0,0,3-2s-12.34-4.82-14-6-9.76-6.18-12-7-6.23-3.69-10-4a60.3,60.3,0,0,0-8,0S948.3,362.25,949,364Z"/>
    <path id="transparent-4" data-name="transparent" class="cls-20" d="M993,339s16.55,8.41,18,10,2.53,2.93,4,2,4.59-4.1,6-4,5.6-1.4,7-1,7-3,7-3l-2-1S998.77,338.13,993,339Z"/>
  </g>
  <g id="shadows">
    <image id="Layer_2_copy_Image" data-name="Layer 2 copy Image" width="1801" height="932" xlink:href="assets/shoe-cofigurator.png"/>
  </g>
  </g>
  <g id="buttons">
    <g id="colors">
    

      <g id="btn-color-9" data-name="btn-color" data-color="#ffffff">
        <path id="cant-9" data-name="cant" class="cls-3" d="M984.96,1007.23v61.46c0,6.44,14.78,11.67,33,11.67s33-5.23,33-11.67v-61.46Z"/>
        <path id="paint-stain-9" data-name="paint-stain" class="cls-15" d="M984.89,1009.31c.63,8.92,1.68,29,3.3,29.08,2.13.13,3.56-12,6.46-12,3.87,0,6,21.55,9.11,21.44s4.42-16.44,7.78-16.45c1.9,0,3.95,10,6.43,10,2.69,0,2.69-15,5.91-15.27,3.53-.32,4,17.54,7.31,17.33,2.58-.17,4-13.62,6.93-13.52,1,0,1.35,1.66,3.94,5.29,2.4,3.38,3.5,5.14,4.11,5,2.21-.52-2.64-17.41,3.52-21.45,1.73-1.12.14-9.78,1.84-9.4" />
        <ellipse id="top-cant-9" data-name="top-cant" class="cls-3" cx="1017.97" cy="1008.23" rx="33.02" ry="11.67"/>
        <ellipse id="paint-9" data-name="paint" class="cls-15" cx="1017.97" cy="1008.23" rx="29.68" ry="8.34"/>
        
      </g>
      <g id="btn-color-8" data-name="btn-color" data-color="#c063a5">
        <path id="cant-8" data-name="cant" class="cls-3" d="M875.75,1007.23v61.46c0,6.44,14.78,11.67,33,11.67s33-5.23,33-11.67v-61.46Z"/>
        <path id="paint-stain-8" data-name="paint-stain" class="cls-5" d="M875.68,1009.31c.63,8.92,1.68,29,3.3,29.08,2.13.13,3.56-12,6.46-12,3.87,0,6,21.55,9.11,21.44s4.42-16.44,7.78-16.45c1.9,0,3.95,10,6.43,10,2.69,0,2.69-15,5.91-15.27,3.53-.32,4,17.54,7.31,17.33,2.58-.17,4-13.62,6.93-13.52,1,0,1.35,1.66,3.94,5.29,2.4,3.38,3.5,5.14,4.11,5,2.21-.52-2.64-17.41,3.52-21.45,1.73-1.12.14-9.78,1.84-9.4"/>
        <ellipse id="top-cant-8" data-name="top-cant" class="cls-3" cx="908.76" cy="1008.23" rx="33.02" ry="11.67"/>
        <ellipse id="paint-8" data-name="paint" class="cls-5" cx="908.76" cy="1008.23" rx="29.68" ry="8.34"/>
      </g>
      <g id="btn-color-7" data-name="btn-color" data-color="#e96aa2">
        <path id="cant-7" data-name="cant" class="cls-3" d="M766.54,1007.23v61.46c0,6.44,14.78,11.67,33,11.67s33-5.23,33-11.67v-61.46Z"/>
        <path id="paint-stain-7" data-name="paint-stain" class="cls-6" d="M766.48,1009.31c.62,8.92,1.68,29,3.29,29.08,2.13.13,3.57-12,6.47-12,3.86,0,6,21.55,9.1,21.44s4.43-16.44,7.78-16.45c1.91,0,4,10,6.44,10,2.68,0,2.68-15,5.91-15.27,3.52-.32,4,17.54,7.3,17.33,2.58-.17,4-13.62,6.94-13.52,1,0,1.34,1.66,3.93,5.29,2.41,3.38,3.51,5.14,4.11,5,2.22-.52-2.63-17.41,3.53-21.45,1.72-1.12.13-9.78,1.83-9.4"/>
        <ellipse id="top-cant-7" data-name="top-cant" class="cls-3" cx="799.56" cy="1008.23" rx="33.02" ry="11.67"/>
        <ellipse id="paint-7" data-name="paint" class="cls-6" cx="799.56" cy="1008.23" rx="29.68" ry="8.34"/>
      </g>
      <g id="btn-color-6" data-name="btn-color" data-color="#f38e40">
        <path id="cant-6" data-name="cant" class="cls-3" d="M657.34,1007.23v61.46c0,6.44,14.78,11.67,33,11.67s33-5.23,33-11.67v-61.46Z"/>
        <path id="paint-stain-6" data-name="paint-stain" class="cls-7" d="M657.27,1009.31c.63,8.92,1.68,29,3.3,29.08,2.12.13,3.56-12,6.46-12,3.87,0,6,21.55,9.11,21.44s4.42-16.44,7.78-16.45c1.9,0,4,10,6.43,10,2.69,0,2.69-15,5.91-15.27,3.53-.32,4,17.54,7.31,17.33,2.58-.17,4-13.62,6.93-13.52,1,0,1.35,1.66,3.94,5.29,2.4,3.38,3.5,5.14,4.11,5,2.21-.52-2.64-17.41,3.52-21.45,1.72-1.12.13-9.78,1.84-9.4"/>
        <ellipse id="top-cant-6" data-name="top-cant" class="cls-3" cx="690.35" cy="1008.23" rx="33.02" ry="11.67"/>
        <ellipse id="paint-6" data-name="paint" class="cls-7" cx="690.35" cy="1008.23" rx="29.68" ry="8.34"/>
      </g>
      <g id="btn-color-5" data-name="btn-color" data-color="#f5d74d">
        <path id="cant-5" data-name="cant" class="cls-3" d="M548.13,1007.23v61.46c0,6.44,14.78,11.67,33,11.67s33-5.23,33-11.67v-61.46Z"/>
        <path id="paint-stain-5" data-name="paint-stain" class="cls-8" d="M548.06,1009.31c.63,8.92,1.69,29,3.3,29.08,2.13.13,3.57-12,6.46-12,3.87,0,6,21.55,9.11,21.44s4.43-16.44,7.78-16.45c1.91,0,4,10,6.44,10,2.68,0,2.68-15,5.91-15.27,3.52-.32,4,17.54,7.3,17.33,2.58-.17,4-13.62,6.94-13.52,1,0,1.34,1.66,3.93,5.29,2.4,3.38,3.5,5.14,4.11,5,2.22-.52-2.63-17.41,3.53-21.45,1.72-1.12.13-9.78,1.83-9.4"/>
        <ellipse id="top-cant-5" data-name="top-cant" class="cls-3" cx="581.15" cy="1008.23" rx="33.02" ry="11.67"/>
        <ellipse id="paint-5" data-name="paint" class="cls-8" cx="581.15" cy="1008.23" rx="29.68" ry="8.34"/>
      </g>
      <g id="btn-color-4" data-name="btn-color" data-color="#c4d752">
        <path id="cant-4" data-name="cant" class="cls-3" d="M438.93,1007.23v61.46c0,6.44,14.78,11.67,33,11.67s33-5.23,33-11.67v-61.46Z"/>
        <path id="paint-stain-4" data-name="paint-stain" class="cls-9" d="M438.86,1009.31c.63,8.92,1.68,29,3.3,29.08,2.12.13,3.56-12,6.46-12,3.86,0,6,21.55,9.1,21.44s4.43-16.44,7.79-16.45c1.9,0,3.95,10,6.43,10,2.68,0,2.69-15,5.91-15.27,3.52-.32,4,17.54,7.31,17.33,2.58-.17,4-13.62,6.93-13.52,1,0,1.35,1.66,3.93,5.29,2.41,3.38,3.51,5.14,4.12,5,2.21-.52-2.64-17.41,3.52-21.45,1.72-1.12.13-9.78,1.84-9.4"/>
        <ellipse id="top-cant-4" data-name="top-cant" class="cls-3" cx="471.94" cy="1008.23" rx="33.02" ry="11.67"/>
        <ellipse id="paint-4" data-name="paint" class="cls-9" cx="471.94" cy="1008.23" rx="29.68" ry="8.34"/>
      </g>
      <g id="btn-color-3" data-name="btn-color" data-color="#77c26b">
        <path id="cant-3" data-name="cant" class="cls-3" d="M329.72,1007.23v61.46c0,6.44,14.78,11.67,33,11.67s33-5.23,33-11.67v-61.46Z"/>
        <path id="paint-stain-3" data-name="paint-stain" class="cls-10" d="M329.65,1009.31c.63,8.92,1.68,29,3.3,29.08,2.13.13,3.56-12,6.46-12,3.87,0,6,21.55,9.11,21.44s4.43-16.44,7.78-16.45c1.91,0,4,10,6.44,10,2.68,0,2.68-15,5.91-15.27,3.52-.32,4,17.54,7.3,17.33,2.58-.17,4-13.62,6.93-13.52,1,0,1.35,1.66,3.94,5.29,2.4,3.38,3.5,5.14,4.11,5,2.22-.52-2.63-17.41,3.53-21.45,1.72-1.12.13-9.78,1.83-9.4"/>
        <ellipse id="top-cant-3" data-name="top-cant" class="cls-3" cx="362.74" cy="1008.23" rx="33.02" ry="11.67"/>
        <ellipse id="paint-3" data-name="paint" class="cls-10" cx="362.74" cy="1008.23" rx="29.68" ry="8.34"/>
      </g>
      <g id="btn-color-2" data-name="btn-color" data-color="#439aa7">
        <path id="cant-2" data-name="cant" class="cls-3" d="M220.52,1007.23v61.46c0,6.44,14.78,11.67,33,11.67s33-5.23,33-11.67v-61.46Z"/>
        <path id="paint-stain-2" data-name="paint-stain" class="cls-11" d="M220.45,1009.31c.62,8.92,1.68,29,3.3,29.08,2.12.13,3.56-12,6.46-12,3.86,0,6,21.55,9.1,21.44s4.43-16.44,7.79-16.45c1.9,0,4,10,6.43,10,2.68,0,2.69-15,5.91-15.27,3.52-.32,4,17.54,7.31,17.33,2.58-.17,4-13.62,6.93-13.52,1,0,1.35,1.66,3.93,5.29,2.41,3.38,3.51,5.14,4.12,5,2.21-.52-2.64-17.41,3.52-21.45,1.72-1.12.13-9.78,1.84-9.4"/>
        <ellipse id="top-cant-2" data-name="top-cant" class="cls-3" cx="253.53" cy="1008.23" rx="33.02" ry="11.67"/>
        <ellipse id="paint-2" data-name="paint" class="cls-11" cx="253.53" cy="1008.23" rx="29.68" ry="8.34"/>
      </g>
      <g id="btn-color-1" data-name="btn-color" data-color="#77c4d5">
        <path id="cant-1" data-name="cant" class="cls-3" d="M111.31,1007.23v61.46c0,6.44,14.78,11.67,33,11.67s33-5.23,33-11.67v-61.46Z"/>
        <path id="paint-stain-1" class="cls-4" d="M111.24,1009.31c.63,8.92,1.68,29,3.3,29.08,2.13.13,3.56-12,6.46-12,3.87,0,6,21.55,9.11,21.44s4.43-16.44,7.78-16.45c1.9,0,4,10,6.44,10,2.68,0,2.68-15,5.9-15.27,3.53-.32,4,17.54,7.31,17.33,2.58-.17,4-13.62,6.93-13.52,1,0,1.35,1.66,3.94,5.29,2.4,3.38,3.5,5.14,4.11,5,2.21-.52-2.64-17.41,3.53-21.45,1.72-1.12.13-9.78,1.83-9.4"/>
        <ellipse id="top-cant-1" data-name="top-cant" class="cls-3" cx="144.33" cy="1008.23" rx="33.02" ry="11.67"/>
        <ellipse id="paint-1" data-name="paint" class="cls-4" cx="144.33" cy="1008.23" rx="29.68" ry="8.34"/>
      </g>

    </g>
    <g id="save" class="btn-action">
      <rect class="cls-12" x="1526.94" y="997.27" width="198.53" height="82.38" rx="23.63"/>
      <g>
        <path d="M1602.8,1028.24a.47.47,0,0,1-.11.44.94.94,0,0,0-.24.5.58.58,0,0,1-.15.11.33.33,0,0,0-.16.17c-.08.17-.18.26-.28.28a1.17,1.17,0,0,1-.24.41,2.19,2.19,0,0,0-.26.37c0,.11,0,.16-.11.17a.38.38,0,0,0-.17.08,1.29,1.29,0,0,1-.57.91,2.48,2.48,0,0,1-.68-.16.27.27,0,0,1-.08-.25.54.54,0,0,0,0-.28,2.18,2.18,0,0,0-.12-.22,1.42,1.42,0,0,1-.13-.22,1.19,1.19,0,0,0-.15-.18l-.16-.16a.46.46,0,0,0-.19-.23l-.12-.08c0-.07-.09-.13-.13-.19l-.12-.19-.14-.15-.14-.16-.22-.11a.16.16,0,0,1-.1-.08,2.1,2.1,0,0,0-.78-.19,3.45,3.45,0,0,1-.59,0,.63.63,0,0,1-.19,0,.69.69,0,0,0-.22,0l-.15,0-.19.06a.31.31,0,0,1-.19,0,.29.29,0,0,0-.16,0,.68.68,0,0,0-.21.17.34.34,0,0,1-.25.11,1.45,1.45,0,0,1-.33.45.67.67,0,0,0-.24.3c0,.06,0,.2-.09.4s-.09.37-.16.6a1.72,1.72,0,0,0-.06.62,1.38,1.38,0,0,0,.13.64,2.62,2.62,0,0,1,.18.58.36.36,0,0,1,.18.16l.1.22.18.18a.35.35,0,0,0,.23.13.32.32,0,0,0,.06.22.25.25,0,0,1,.07.18,3.1,3.1,0,0,1,.56.47.59.59,0,0,0,.23.27c.08,0,.09.09.05.17a.6.6,0,0,1,.31.16l.16.15a1.81,1.81,0,0,1,.5.39,1.08,1.08,0,0,0,.4.33.54.54,0,0,0,.13.25.49.49,0,0,1,.12.25c.11,0,.18,0,.22.06s.13.09.25.07a.4.4,0,0,0,.18.22l.23.12.56.44a3.36,3.36,0,0,1,.41.34.58.58,0,0,0,.12.14l.13.11a8.68,8.68,0,0,1,.69.71,4,4,0,0,0,.5.51,2.4,2.4,0,0,0,.43.88.94.94,0,0,0,.28.56.89.89,0,0,0,.07.51l.18.39a1.72,1.72,0,0,1,.11.38.8.8,0,0,1,0,.37.47.47,0,0,1,0,.24.25.25,0,0,0,0,.17,1.06,1.06,0,0,0,0,.31,3.09,3.09,0,0,1,.07.35,1.12,1.12,0,0,0,0,.42.75.75,0,0,1,0,.2,2.62,2.62,0,0,1-.09.38.59.59,0,0,0,0,.37.34.34,0,0,0-.09.41.45.45,0,0,1-.1.22l-.12.15a1,1,0,0,1-.06.5,1.72,1.72,0,0,1-.18.32.42.42,0,0,1-.26.18c0,.15,0,.24,0,.27a.29.29,0,0,0-.11.11,1,1,0,0,1-.29.42,2.55,2.55,0,0,0-.33.33c-.09.1-.18.21-.28.31l-.32.31-.2.22a1.92,1.92,0,0,1-.17.19.41.41,0,0,1-.2.09,1.76,1.76,0,0,0-.3.1l-.55.22a2.75,2.75,0,0,1-.45.09,1.16,1.16,0,0,0-.39.08.27.27,0,0,1-.14,0,.7.7,0,0,1-.27,0l-.23-.08a.91.91,0,0,1-.5.09l-.6-.09a3,3,0,0,0-.42,0,.81.81,0,0,1-.42-.11c-.13,0-.26.1-.41.16a4.56,4.56,0,0,0-.62-.13,4.2,4.2,0,0,1-.66-.12l-.25-.09-.25-.13a.67.67,0,0,0-.31,0,.52.52,0,0,1-.28,0l-.19-.14a1.33,1.33,0,0,0-.19-.14,1.51,1.51,0,0,0-.36-.22.4.4,0,0,1-.2-.22.39.39,0,0,1-.44-.13.42.42,0,0,0-.37-.18.21.21,0,0,1,0-.18.17.17,0,0,0,0-.17c-.1,0-.17,0-.2,0a.14.14,0,0,1-.17,0,1.18,1.18,0,0,0-.11-.18,1.39,1.39,0,0,1-.11-.19.78.78,0,0,0-.22-.13.64.64,0,0,1-.28-.22.6.6,0,0,0-.16-.2.36.36,0,0,1-.09-.08,4.23,4.23,0,0,1-.3-.54,1.37,1.37,0,0,0-.26-.43v-.4a7.39,7.39,0,0,0-.42-.66,1.35,1.35,0,0,1-.24-.84.47.47,0,0,0,.14-.14.76.76,0,0,1,.11-.14.49.49,0,0,1,.21-.08.5.5,0,0,0,.2-.08,2.68,2.68,0,0,1,.34-.16.36.36,0,0,0,.25-.28.61.61,0,0,0,.28-.06l.28-.12a1.5,1.5,0,0,1,.29-.18l.12,0,.17-.19a1.29,1.29,0,0,1,.17-.16c.13,0,.21,0,.24,0s.13,0,.3.08a1.39,1.39,0,0,1,.5.84,1.1,1.1,0,0,0,.17.47l.2.31a2.93,2.93,0,0,0,.41.47,2.52,2.52,0,0,0,.53.44,2.9,2.9,0,0,1,.34.25l.28.22a.83.83,0,0,0,.24,0l.29,0,.22.06.19,0a4.83,4.83,0,0,0,.88,0,3.69,3.69,0,0,0,.78-.14l.48-.14a1.63,1.63,0,0,0,.42-.2,2.36,2.36,0,0,0,.39-.35,1.74,1.74,0,0,0,.3-.47.74.74,0,0,1,.11-.26.16.16,0,0,0,0-.11.73.73,0,0,0,0-.22,1.49,1.49,0,0,1,0-.28l.06-.27a1,1,0,0,1,.06-.2,1.53,1.53,0,0,0-.06-.45,2.88,2.88,0,0,1-.09-.46l-.28-.31a.78.78,0,0,1-.22-.41l-.52-.43a1.09,1.09,0,0,1-.33-.66.49.49,0,0,0-.21-.08.39.39,0,0,1-.22-.08.76.76,0,0,0-.17-.5l-.36-.37a1.27,1.27,0,0,0-.11-.17l-.14-.11c-.09-.15-.17-.23-.25-.25s-.26-.21-.41-.31a4.41,4.41,0,0,1-.73-.71,4.59,4.59,0,0,0-.8-.73.76.76,0,0,0-.16-.41,2.47,2.47,0,0,0-.28-.28,2.2,2.2,0,0,0-.59-1.12.33.33,0,0,0,0-.25,1.17,1.17,0,0,1-.13-.25,1,1,0,0,0-.16-.3l-.09-.11a3,3,0,0,1-.08-.52,1.22,1.22,0,0,0-.14-.51,1.13,1.13,0,0,1,.08-.22.58.58,0,0,0,0-.25,1.86,1.86,0,0,1-.1-.47q0-.12-.09-.12a.64.64,0,0,0,0-.43,1.47,1.47,0,0,1-.13-.42,3.64,3.64,0,0,1,0-.45c0-.16,0-.29.07-.39a1.08,1.08,0,0,1,.06-.5,2.55,2.55,0,0,1,.16-.38,2.18,2.18,0,0,1,.25-.56c.1-.16.2-.33.29-.5a1.17,1.17,0,0,0,.17-.47.61.61,0,0,0,.29-.28,1,1,0,0,1,.21-.31l.47-.38.39-.28.36-.22a1.16,1.16,0,0,0,.38-.15.19.19,0,0,1,.12-.07,1.48,1.48,0,0,0,.32-.06l.09,0a1.67,1.67,0,0,1,.44-.06l.47,0,.34,0a1.48,1.48,0,0,1,.44,0l.22.08.21.07a3.35,3.35,0,0,0,1,0l.21.15.2.14a1.2,1.2,0,0,1,.72.31,2.09,2.09,0,0,1,.75.26l.47.33.15.06a.21.21,0,0,0,.19,0,.73.73,0,0,0,.24.3,3,3,0,0,1,.26.24,5.64,5.64,0,0,0,.61.21,1.62,1.62,0,0,1,.42.19.6.6,0,0,0,.19.08.3.3,0,0,1,.16.08A.57.57,0,0,1,1602.8,1028.24Z"/>
        <path d="M1626.14,1047.46a.33.33,0,0,1-.28.22.3.3,0,0,0-.28.22.68.68,0,0,1-.41-.19.57.57,0,0,1-.25.17l-.16,0a.86.86,0,0,0-.37.25.58.58,0,0,1-.19-.1.63.63,0,0,0-.22-.09l-.5.06a.92.92,0,0,1-.28,0,2,2,0,0,1-.44,0,.9.9,0,0,0-.43,0,.34.34,0,0,1-.28,0,.31.31,0,0,0-.29.13q-.15,0-.18,0s-.09,0-.19,0a1.18,1.18,0,0,1-.36.14l-.42.11a.41.41,0,0,1-.27-.24.8.8,0,0,0-.23-.29,1.15,1.15,0,0,0,0-.32.29.29,0,0,1,.05-.22.27.27,0,0,1-.09-.2,1.38,1.38,0,0,0,0-.26,1.59,1.59,0,0,1-.16-.41,1.63,1.63,0,0,0-.16-.5.42.42,0,0,1,0-.34.79.79,0,0,1-.19-.36,4,4,0,0,0-.12-.52.39.39,0,0,1-.08-.23.22.22,0,0,0,0-.14,1.38,1.38,0,0,1-.16-.47,1,1,0,0,0,0-.25,2.52,2.52,0,0,1-.17-.47,2.89,2.89,0,0,0-.11-.35l-.13-.17a1.17,1.17,0,0,1-.12-.2.6.6,0,0,1-.07-.27.58.58,0,0,0-.06-.26l-.11-.22c0-.06,0-.13-.08-.19a1.59,1.59,0,0,1-.07-.39.7.7,0,0,0-.14-.36.62.62,0,0,0-.38,0l-.34.1-.21,0a.44.44,0,0,0-.2,0,3.08,3.08,0,0,0-.39.07.56.56,0,0,1-.36,0,.56.56,0,0,0-.2,0,.7.7,0,0,1-.24,0,.55.55,0,0,0-.32,0,3.32,3.32,0,0,1-.43,0l-.43.06a.64.64,0,0,1-.35,0l-.47-.06-.22,0a1.77,1.77,0,0,0-.46,0,1.26,1.26,0,0,1-.47,0,.85.85,0,0,1-.22.09.29.29,0,0,0-.19.12,1.41,1.41,0,0,0-.58,0,1.5,1.5,0,0,1-.58,0,.55.55,0,0,0-.25.43,2.07,2.07,0,0,1-.06.5,1.44,1.44,0,0,1-.19.46l-.25.42-.12.31a1.3,1.3,0,0,1-.16.31,2.23,2.23,0,0,1-.09.22l-.06.13s0,.06-.07.06a.73.73,0,0,1-.09.33.24.24,0,0,0-.06.14.6.6,0,0,0,0,.28.9.9,0,0,1,0,.28,1.34,1.34,0,0,1-.18.38.7.7,0,0,0-.11.4,1.18,1.18,0,0,0-.37.52,1.24,1.24,0,0,1-.38.54,2.36,2.36,0,0,1-.12.54c-.06.16-.13.32-.2.48a2.7,2.7,0,0,0-.18.5,2.8,2.8,0,0,0-.06.61,2.36,2.36,0,0,1-.31.17.4.4,0,0,1-.38,0,2,2,0,0,0-.48-.22,1.5,1.5,0,0,1-.36-.16,1.36,1.36,0,0,0-.34,0,4,4,0,0,0-.44,0,.77.77,0,0,1-.31,0l-.19-.06h-.23a.83.83,0,0,1-.27,0,2.35,2.35,0,0,1-.72-.24,4.28,4.28,0,0,0-.66-.26,1,1,0,0,1,0-.27c0-.07,0-.16.09-.26a.33.33,0,0,1,.16-.21c.06,0,.08-.08.06-.17l.2-.5c.07-.16.15-.33.24-.5a1.85,1.85,0,0,1,.18-.39l.13-.14c.08-.21.14-.35.17-.42l.08-.17.09-.25a.68.68,0,0,1,.16-.25l.28-.38a1.4,1.4,0,0,1,.19-.45l.15-.24a1.36,1.36,0,0,0,.25-.39c.07-.13.14-.28.22-.45a1.91,1.91,0,0,0,.22-.3,1.27,1.27,0,0,0,.16-.33,1.35,1.35,0,0,1,.09-.26l.06-.11a1.45,1.45,0,0,1,0-.23.54.54,0,0,1,0-.11,3,3,0,0,0,.26-.57,3.22,3.22,0,0,1,.27-.56.76.76,0,0,1,.2-.28.41.41,0,0,0,.14-.34.49.49,0,0,0,.22-.27,1.66,1.66,0,0,1,.16-.33,1.17,1.17,0,0,1,.17-.28,2,2,0,0,0,.2-.28l.14-.33c.05-.11.11-.22.17-.33a2.69,2.69,0,0,1,.16-.29.55.55,0,0,1,.28-.21.4.4,0,0,1,0-.32l.14-.33a1.2,1.2,0,0,1,.15-.24.87.87,0,0,0,.16-.23l.16-.31a1.29,1.29,0,0,1,.2-.39.63.63,0,0,0,.11-.15.25.25,0,0,0,0-.18.27.27,0,0,1,0-.16.75.75,0,0,0,.28-.31l.22-.41a2.37,2.37,0,0,0,.19-.39,1.61,1.61,0,0,1,.25-.42.41.41,0,0,1,0-.27l.13-.26c0-.06.07-.13.11-.2a1,1,0,0,1,.1-.21,1.24,1.24,0,0,0,.27-.5,3.84,3.84,0,0,1,.11-.4.82.82,0,0,1,.14-.25,1.64,1.64,0,0,0,.14-.22,1.52,1.52,0,0,0,.09-.25.31.31,0,0,1,.16-.19,1.58,1.58,0,0,1,.14-.53,5.11,5.11,0,0,0,.2-.47,1.35,1.35,0,0,1,.35-.44,2.31,2.31,0,0,0,0-.37,1,1,0,0,1,.06-.35.89.89,0,0,1,.16-.25.71.71,0,0,0,.15-.22c.09-.27.16-.49.21-.67s.11-.35.17-.51.12-.32.19-.52.12-.38.18-.55.12-.24.18-.35.1-.24.14-.36a1.11,1.11,0,0,0,.47-.44,3.6,3.6,0,0,0,.25-.63.57.57,0,0,1,.26,0h.17c.21,0,.34.12.38.22a.67.67,0,0,0,.19.28,2.94,2.94,0,0,1,.23.33c0,.09.1.18.14.27a2.23,2.23,0,0,1,.27.34,1.72,1.72,0,0,1,.2.44c0,.08.08.18.12.28s.09.21.13.31a3.59,3.59,0,0,1,.17.34l.17.41c.07.17.13.36.21.58s.14.43.2.64a1.21,1.21,0,0,1,.08.28.57.57,0,0,0,.08.25,1.22,1.22,0,0,0,.11.25,1.74,1.74,0,0,0,.1.19c.09.19.18.39.27.61s.19.44.3.67a1.18,1.18,0,0,1,.11.19l.11.22a1,1,0,0,1,.11.15,1.74,1.74,0,0,0,.1.19.76.76,0,0,1,.11.22,1,1,0,0,0,.14.22l.18.33a1.55,1.55,0,0,1,.14.39c0,.12.09.28.14.46a4,4,0,0,1,.11.54,4.85,4.85,0,0,1,.29.64c.1.24.19.47.27.7l.17.17.17.2a.6.6,0,0,0,.13.22.77.77,0,0,1,.09.13,4.72,4.72,0,0,1,.21.55c0,.17.09.35.14.51a1.77,1.77,0,0,0,.15.31.77.77,0,0,1,.1.38,4.36,4.36,0,0,1,.28.45l.15.36.22.36.13.23a2.57,2.57,0,0,1,.34.6.79.79,0,0,1,.08.26.52.52,0,0,0,.08.24,2.6,2.6,0,0,0,.15.42,2.18,2.18,0,0,1,.16.45,1,1,0,0,1,.23.28,2.22,2.22,0,0,1,.14.32.9.9,0,0,1,.13.26l.12.33a3.33,3.33,0,0,0,.25.5,1.66,1.66,0,0,1,.22.5,2.92,2.92,0,0,0,.14.31,2.22,2.22,0,0,1,.14.32.44.44,0,0,1,0,.26.28.28,0,0,0,0,.2,2.77,2.77,0,0,0,.19.41c.12.42.27.86.43,1.31.11.28.23.55.36.82A3.25,3.25,0,0,1,1626.14,1047.46Zm-8.41-9.41a.31.31,0,0,0,0-.25c0-.08,0-.17-.06-.28a1.88,1.88,0,0,1,0-.28,1.15,1.15,0,0,0-.08-.28.78.78,0,0,0-.14-.2.34.34,0,0,1-.11-.18c0-.29-.08-.54-.11-.76s-.07-.44-.11-.67a.87.87,0,0,1-.25-.32,1.33,1.33,0,0,1-.24-.42c0-.11,0-.22-.07-.33l-.13-.42-.12-.33a3.21,3.21,0,0,1-.1-.43,2.62,2.62,0,0,0-.09-.38l-.06-.17a.87.87,0,0,1-.07-.17c0-.13-.08-.26-.12-.41a.41.41,0,0,0-.22-.28.48.48,0,0,0-.34.38,1.15,1.15,0,0,1-.22.46.91.91,0,0,0-.16.19,4.33,4.33,0,0,1-.11.49c0,.09-.07.19-.11.29l-.11.28a1.89,1.89,0,0,1-.11.25l-.11.19-.07.16-.5.92a5.3,5.3,0,0,0-.38.8,1.9,1.9,0,0,0-.09.29,1.76,1.76,0,0,1-.1.3.71.71,0,0,1-.15.22.63.63,0,0,0-.16.25.25.25,0,0,0,0,.17.5.5,0,0,1,0,.2,2.23,2.23,0,0,0-.27.55,1.53,1.53,0,0,1-.11.36,1.48,1.48,0,0,0,.71.14h.7l1.22-.08a8.1,8.1,0,0,0,1.06-.14,2.55,2.55,0,0,1,.78,0A1.27,1.27,0,0,0,1617.73,1038.05Z"/>
        <path d="M1646.64,1025.4a1.61,1.61,0,0,1-.16.62,1.52,1.52,0,0,0-.09.25,3.19,3.19,0,0,1-.09.31.51.51,0,0,0-.1.25.35.35,0,0,1,0,.16,1.28,1.28,0,0,0-.12.2.5.5,0,0,1-.1.14c0,.15-.09.3-.14.46a.42.42,0,0,1-.26.29.54.54,0,0,0,0,.25.22.22,0,0,1,0,.19c-.16.42-.31.82-.45,1.21s-.29.75-.45,1.1a.55.55,0,0,1-.11.5,1.34,1.34,0,0,0-.27.44.28.28,0,0,0,0,.22.5.5,0,0,1,0,.22.34.34,0,0,1-.13.17.15.15,0,0,0,0,.2,1.15,1.15,0,0,0-.37.71,2.27,2.27,0,0,1-.25.76,1.24,1.24,0,0,1-.14.18.78.78,0,0,0-.14.2l-.36.64a1.85,1.85,0,0,0-.24.61,1.66,1.66,0,0,0-.25.34l-.18.38a5.2,5.2,0,0,1-.27.51c-.07.12-.14.24-.2.36a.24.24,0,0,0-.07.16q0,.09-.12.15a1,1,0,0,1-.19.44,1,1,0,0,0-.15.5.63.63,0,0,0-.11.13l-.11.15a2.18,2.18,0,0,1-.28.86,3.29,3.29,0,0,0-.35.83.73.73,0,0,1-.14.16.67.67,0,0,0-.14.15,2.1,2.1,0,0,1-.16.5.7.7,0,0,1-.31.35.88.88,0,0,1-.08.51c-.07.16-.15.32-.23.49s-.08.2-.11.29a1.35,1.35,0,0,1-.14.3l-.23.53a.45.45,0,0,1-.21.25,1.26,1.26,0,0,1-.25.74,1.4,1.4,0,0,0-.28.7.27.27,0,0,1-.2.11.26.26,0,0,0-.21.14.17.17,0,0,0,0,.17.23.23,0,0,1,0,.2c-.1.23-.16.4-.19.49a2.43,2.43,0,0,1-.09.3,1,1,0,0,0-.17.25.28.28,0,0,1-.08.12,3.89,3.89,0,0,0-.3.55c-.09.22-.18.44-.26.67s-.16.28-.24.39a.74.74,0,0,1-.36.27c0,.08,0,.13,0,.15s0,.09,0,.19l-.29.16a.45.45,0,0,1-.4-.1.84.84,0,0,1-.23-.2.15.15,0,0,0-.08-.08c-.1-.1-.15-.18-.15-.23v-.11a1.27,1.27,0,0,0-.14-.17,1.3,1.3,0,0,1-.15-.18c0-.08-.07-.16-.1-.23s-.07-.15-.11-.24a.87.87,0,0,1-.11-.18c0-.07-.07-.14-.11-.22a1.18,1.18,0,0,0-.14-.22,1.15,1.15,0,0,1-.14-.19c-.11-.12-.18-.21-.21-.25a.36.36,0,0,0-.08-.09.82.82,0,0,0-.14-.3.41.41,0,0,1-.07-.11,4.7,4.7,0,0,1-.32-.51,3,3,0,0,0-.18-.36,1.84,1.84,0,0,0-.13-.25,1.34,1.34,0,0,0-.16-.22,1.4,1.4,0,0,0-.17-.3.1.1,0,0,1,0-.08c-.11-.1-.17-.17-.18-.22a.19.19,0,0,0,0-.09,3,3,0,0,1-.24-.26,1.15,1.15,0,0,1-.17-.4,1.92,1.92,0,0,1-.26-.32,1.3,1.3,0,0,1-.18-.46,1.27,1.27,0,0,1-.12-.36,1.22,1.22,0,0,0-.13-.36,1.48,1.48,0,0,1-.2-.35,1.35,1.35,0,0,0-.08-.21.55.55,0,0,1,0-.17.32.32,0,0,0-.06-.17l-.14-.35a.68.68,0,0,1,0-.37.32.32,0,0,1-.14-.2.85.85,0,0,0-.08-.24.65.65,0,0,1-.15-.33.29.29,0,0,0,0-.17,2.17,2.17,0,0,0-.12-.26l-.13-.24a.43.43,0,0,1,0-.25c0-.08,0-.14-.14-.19a1.09,1.09,0,0,1,0-.18,1.37,1.37,0,0,0,0-.16c-.09-.19-.14-.32-.17-.39a1.28,1.28,0,0,0-.11-.2,1.75,1.75,0,0,0-.24-.86,1.9,1.9,0,0,1-.23-.86,5,5,0,0,1-.2-.64,1.66,1.66,0,0,0-.15-.39,1.07,1.07,0,0,0-.07-.19,1.54,1.54,0,0,1-.08-.19,2.18,2.18,0,0,0-.08-.45,1.33,1.33,0,0,0-.11-.24,1.66,1.66,0,0,1-.06-.5,1.14,1.14,0,0,1-.16-.35.66.66,0,0,0-.12-.27.33.33,0,0,1-.07-.23.88.88,0,0,0-.06-.33.78.78,0,0,0-.15-.35.61.61,0,0,0-.11-.48.47.47,0,0,1-.11-.42,10.67,10.67,0,0,1-.44-1.13c0-.16-.08-.32-.13-.47l-.12-.43c-.06-.17-.11-.34-.16-.5s-.08-.32-.12-.44a3.89,3.89,0,0,1-.16-.44,4.59,4.59,0,0,0-.15-.44.63.63,0,0,0,0-.45,1.28,1.28,0,0,1-.09-.52,1.27,1.27,0,0,0,.2-.34,1.11,1.11,0,0,1,.24-.34l.62-.1a1,1,0,0,0,.57-.22c.2,0,.43,0,.68-.1l.75-.15a1.11,1.11,0,0,1,.6-.06.86.86,0,0,1,.43.41,1.64,1.64,0,0,0,0,.23.19.19,0,0,1,0,.17,1.28,1.28,0,0,1,.08.35,3.22,3.22,0,0,0,.08.44c0,.1,0,.21.08.34s0,.24.08.34a.92.92,0,0,1,0,.33.3.3,0,0,0,.09.3c0,.19-.05.3,0,.33s.05,0,.05.07c0,.21.08.38.11.5s.07.25.11.38a.3.3,0,0,1,0,.17.26.26,0,0,0,0,.17,1.59,1.59,0,0,1,.13.47v.22a2.48,2.48,0,0,0,.15.41,1.66,1.66,0,0,0,.25.34c0,.23.1.44.16.64s.13.4.19.61l.09.38c.06.21.11.36.14.45a2,2,0,0,0,.11.26.85.85,0,0,1,.13.22.91.91,0,0,1,.06.32.56.56,0,0,0,.09.17,1.16,1.16,0,0,1,.13.2c0,.17.07.27.08.3a.76.76,0,0,0,0,.11,2.26,2.26,0,0,1,.22.59,1.65,1.65,0,0,0,.22.53,4.25,4.25,0,0,0,.19.47l.12.25a.67.67,0,0,0,.07.33l.09.2a.84.84,0,0,1,.08.27.3.3,0,0,0,.14.23,2.08,2.08,0,0,1,.15.39.51.51,0,0,0,.1.21.46.46,0,0,0,.06.23l.13.23a2,2,0,0,0,.12.44,1.39,1.39,0,0,0,.17.39,1.36,1.36,0,0,1,.17.39.49.49,0,0,1,.07.24.53.53,0,0,0,.06.23,1,1,0,0,1,.14.22.69.69,0,0,0,0,.13,3.09,3.09,0,0,0,.17.39,2.2,2.2,0,0,1,.17.39,2.25,2.25,0,0,0,.28-.42c0-.1.09-.21.13-.33s.08-.25.12-.36.09-.23.13-.33a1.18,1.18,0,0,0,0-.2.65.65,0,0,1,.05-.18,10.22,10.22,0,0,1,.66-1.25l.11-.15a.59.59,0,0,0,.07-.16,1.6,1.6,0,0,0,.11-.33c0-.11.08-.23.14-.36a5.27,5.27,0,0,0,.36-.71,4.53,4.53,0,0,1,.27-.54,1.17,1.17,0,0,1,.14-.25c0-.06.12-.14.2-.25a2,2,0,0,1,.19-.31s.06-.07.06-.09a.81.81,0,0,1,.1-.28l.06-.07c.08-.14.13-.25.16-.31l.06-.19.23-.4a3,3,0,0,0,.21-.44c0-.06,0-.18.09-.34a4.48,4.48,0,0,0,.31-.66,1.75,1.75,0,0,1,.22-.41,2.67,2.67,0,0,0,.16-.31c.06-.14.11-.28.15-.4a1.12,1.12,0,0,0,.22-.38.39.39,0,0,1,.1-.19l.17-.28a1.46,1.46,0,0,0,.14-.28,5.46,5.46,0,0,1,.28-.55,2.12,2.12,0,0,0,.19-.36c0-.1.09-.2.14-.31a1.31,1.31,0,0,1,.2-.28,1.2,1.2,0,0,1,.13-.59,1.32,1.32,0,0,0,.17-.52.66.66,0,0,1,.14-.39,1.06,1.06,0,0,1,.05-.61,1.05,1.05,0,0,0,0-.58,1.52,1.52,0,0,1,.75-.65,1.28,1.28,0,0,1,.55-.14,3.68,3.68,0,0,0,.58-.08.42.42,0,0,0,.17-.1.56.56,0,0,1,.17-.09,1.16,1.16,0,0,1,.42,0,3.25,3.25,0,0,0,.42,0l.19-.06.19-.07c.21.09.35.11.42.07a.54.54,0,0,1,.27-.07.21.21,0,0,0,.17.07.53.53,0,0,1,.23.06,1.18,1.18,0,0,0,.28.3A.2.2,0,0,1,1646.64,1025.4Z"/>
        <path d="M1662.76,1025.68a.63.63,0,0,1,.16.23,1.11,1.11,0,0,1,.08.3.77.77,0,0,1,0,.3.27.27,0,0,1-.24.17c.09.08.11.16.07.23a.5.5,0,0,0-.07.27,4,4,0,0,0,0,.69,2.33,2.33,0,0,1,0,.65.85.85,0,0,1-.09.27l-.13.23a2.61,2.61,0,0,1-.12.28.62.62,0,0,1-.13.19.66.66,0,0,1-.62,0,1,1,0,0,0-.69,0,.59.59,0,0,0-.5-.12.61.61,0,0,1-.53-.16,1,1,0,0,1-.55,0,4.43,4.43,0,0,0-.58-.09l-.18,0a.31.31,0,0,1-.19,0,1.28,1.28,0,0,1-.31-.11.76.76,0,0,0-.32-.08.47.47,0,0,0-.26,0,1,1,0,0,1-.3,0h-.53c-.29,0-.59-.07-.91-.09l-1.06-.09a7.45,7.45,0,0,0-1-.07,9.37,9.37,0,0,0-1,.07,1.11,1.11,0,0,0-.11.64c0,.22.06.44.08.67s0,.46,0,.69,0,.46,0,.68a.52.52,0,0,1,0,.21.75.75,0,0,0,0,.2,4.54,4.54,0,0,0,0,.47,3.4,3.4,0,0,1,0,.53,1.51,1.51,0,0,1,0,.39.52.52,0,0,0,.07.36,2,2,0,0,0,.62.09,2.12,2.12,0,0,0,.42,0h.39c.23,0,.46,0,.68,0h1.72q.51,0,1.14-.06a4.68,4.68,0,0,0,.54-.08.86.86,0,0,1,.55.11.88.88,0,0,1,.33-.06l.33,0a.52.52,0,0,1,.25,0,.81.81,0,0,0,.25,0,5,5,0,0,1,.78,0l.53,0,.3-.06a.57.57,0,0,1,.26,0c.1,0,.16,0,.17.11a.5.5,0,0,0,.08.2,1.21,1.21,0,0,1,.13.52,5.33,5.33,0,0,1,0,.64.51.51,0,0,1,0,.3.8.8,0,0,0,0,.23,4.43,4.43,0,0,0,0,.73,2.48,2.48,0,0,0,.16.68c0,.1-.09.21-.13.32a.75.75,0,0,1-.18.3.27.27,0,0,0-.22,0,.38.38,0,0,1-.19.06.6.6,0,0,1-.25,0l-.22-.11c0-.06-.11-.07-.2,0s-.13,0-.11-.14a1.25,1.25,0,0,1-.53.21.4.4,0,0,0-.32.14.45.45,0,0,0-.35-.11,1.76,1.76,0,0,0-.4.07,1.14,1.14,0,0,0-.32-.07l-.46,0a.47.47,0,0,0-.36,0,1.58,1.58,0,0,1-.36.13,1,1,0,0,0-.56,0l-.47.16c-.1,0-.16,0-.18-.08s-.09-.1-.19-.08a.5.5,0,0,1-.36.08.36.36,0,0,0-.33.11.45.45,0,0,0-.45-.08.46.46,0,0,1-.49-.11c0,.09-.1.11-.17.08a.45.45,0,0,0-.26,0,.88.88,0,0,0-.24,0,.85.85,0,0,1-.23,0,.76.76,0,0,1-.36,0,.44.44,0,0,0-.36,0,.22.22,0,0,0-.13.25,1,1,0,0,1,0,.34l-.06.19a.63.63,0,0,0,0,.19.59.59,0,0,0,0,.23.39.39,0,0,1,0,.24,1.75,1.75,0,0,1-.08.53c0,.19-.1.37-.14.56a3.62,3.62,0,0,0-.12.78.79.79,0,0,1-.16.5.85.85,0,0,1,.1.35,4.33,4.33,0,0,1,0,.53v.92a1.23,1.23,0,0,1-.07.42l-.06.19a.58.58,0,0,0,0,.19.69.69,0,0,0,0,.34.59.59,0,0,1,0,.37,1,1,0,0,0,.61.13c.22,0,.48,0,.77,0s.71,0,1.08-.1a9,9,0,0,1,1-.06,1.53,1.53,0,0,1,.45.06.61.61,0,0,0,.42,0,4.83,4.83,0,0,1,.52-.1,1.72,1.72,0,0,1,.55,0,2.39,2.39,0,0,1,.54,0l.39,0h.52l.48,0,.24-.06a.85.85,0,0,1,.23,0,1,1,0,0,0,.32,0l.15,0c.13.05.21.06.25,0a.26.26,0,0,1,.1,0,.34.34,0,0,0,.31,0,.8.8,0,0,1,.47,0,.29.29,0,0,1,.11.21.24.24,0,0,0,.11.2c0,.1,0,.17.06.19a.19.19,0,0,1,.12.15,7.41,7.41,0,0,1,0,1.49c-.06.49-.1,1-.12,1.54a.46.46,0,0,1-.16.15l-.22.1a1.37,1.37,0,0,1-.2.13.48.48,0,0,1-.24.06.77.77,0,0,1-.25,0,1,1,0,0,0-.25-.08,1.36,1.36,0,0,0-.29,0,1.69,1.69,0,0,1-.33,0l-.55,0-.61-.06c-.23,0-.44,0-.64,0a1,1,0,0,1-.45-.11c-.1,0-.18,0-.22,0a.26.26,0,0,1-.22.07,2.41,2.41,0,0,0-.67-.09l-.77,0a1.62,1.62,0,0,0-.54,0,3.52,3.52,0,0,1-.58,0,2.26,2.26,0,0,1-.52,0,2.17,2.17,0,0,0-.51,0,2.78,2.78,0,0,0-.52,0,1.29,1.29,0,0,1-.48,0,.73.73,0,0,1-.27,0,.67.67,0,0,0-.26,0,.67.67,0,0,1-.32,0,.53.53,0,0,0-.25,0,2.81,2.81,0,0,0-.53-.08,1.18,1.18,0,0,1-.53-.17.32.32,0,0,1-.23,0,.93.93,0,0,0-.24,0,.72.72,0,0,1-.25,0h-.15a1.85,1.85,0,0,0-.42.11.7.7,0,0,1-.43,0,.57.57,0,0,1-.25-.28,2.9,2.9,0,0,0-.09-.28l-.08-.2a.6.6,0,0,1,0-.24.57.57,0,0,1,0-.26.33.33,0,0,0,0-.24,1.4,1.4,0,0,0-.09-.29l-.12-.27a1.83,1.83,0,0,0,0-.66,2.13,2.13,0,0,1,0-.68,1.39,1.39,0,0,1,0-.41,1,1,0,0,0,0-.22.68.68,0,0,0,0-.19,1.34,1.34,0,0,1-.07-.18c0-.11,0-.16,0-.17s0-.07,0-.18a2,2,0,0,0-.14-.53.77.77,0,0,1,0-.56.39.39,0,0,0,0-.28.37.37,0,0,1,0-.16,1.35,1.35,0,0,1,0-.33c0-.11.07-.23.11-.36a1,1,0,0,0,0-.26l-.06-.24c0-.14.05-.23,0-.26a.2.2,0,0,1,0-.14,1.07,1.07,0,0,1,0-.25,1.07,1.07,0,0,0,0-.25,1.1,1.1,0,0,1,0-.45.31.31,0,0,0-.11-.33.89.89,0,0,0,.07-.64,3.23,3.23,0,0,1-.07-.71.45.45,0,0,1,0-.28c0-.08,0-.17.06-.28a.85.85,0,0,0,0-.23.93.93,0,0,1,0-.24,2.19,2.19,0,0,0,0-.36v-.39a.68.68,0,0,1,0-.19.57.57,0,0,0,0-.18.93.93,0,0,1-.06-.21,1.11,1.11,0,0,1,0-.23c0-.19,0-.3.09-.34a2.22,2.22,0,0,0-.11-.25c0-.07,0-.15.08-.25-.09-.23-.11-.37-.08-.41a.31.31,0,0,0,0-.19c0-.23,0-.43-.07-.61a4.49,4.49,0,0,1,0-.51.82.82,0,0,1,0-.21.51.51,0,0,0,0-.2.6.6,0,0,0,0-.25.41.41,0,0,1,0-.22,2.94,2.94,0,0,0,.16-.83.84.84,0,0,1,.16-.51,1.32,1.32,0,0,1-.1-1,4.67,4.67,0,0,0,.13-1.11,4.34,4.34,0,0,0,0-.8,3.82,3.82,0,0,1,0-.89,1.61,1.61,0,0,0,0-.56,1.54,1.54,0,0,1-.07-.38.87.87,0,0,1,.07-.31l.12-.31c0-.09.08-.16.11-.24a.35.35,0,0,1,.17-.17,9.06,9.06,0,0,0,2.64.11,14,14,0,0,1,2.49,0l.67.14a3.75,3.75,0,0,0,.67.11,1.3,1.3,0,0,0,.44,0,5,5,0,0,1,.56-.08,1.69,1.69,0,0,0,.42,0l.18,0a.87.87,0,0,1,.28,0,.79.79,0,0,0,.28,0,1.58,1.58,0,0,0,.47.07l.47,0,.4,0a1.62,1.62,0,0,1,.44,0,3.82,3.82,0,0,1,.69.07,5.62,5.62,0,0,0,.78.11,1.06,1.06,0,0,1,.36,0l.2.07a3.75,3.75,0,0,0,.81,0A3.44,3.44,0,0,1,1662.76,1025.68Z"/>
      </g>
    </g>
    <g id="reset" class="btn-action">
      <rect class="cls-12" x="1302.85" y="997.27" width="198.53" height="82.38" rx="23.63"/>
      <g>
        <path d="M1376,1048.43a1,1,0,0,1-.41.37,1.33,1.33,0,0,0-.32.21.23.23,0,0,1-.15.07.54.54,0,0,1-.5-.09,2,2,0,0,1-.79.09,1.89,1.89,0,0,0-.71.07.52.52,0,0,0-.25.11,1.1,1.1,0,0,1-.21.14.82.82,0,0,1-.33,0H1372a.68.68,0,0,1-.2-.24,1.55,1.55,0,0,1-.14-.29,1.51,1.51,0,0,1-.38-.38.56.56,0,0,1-.11-.17.56.56,0,0,0-.11-.17,3,3,0,0,1-.34-.55,3,3,0,0,1-.19-.45l-.2-.25a2,2,0,0,1-.21-.28c-.06-.09-.13-.17-.21-.27a1,1,0,0,1-.19-.26.57.57,0,0,1-.06-.24.55.55,0,0,0-.07-.23,1.63,1.63,0,0,0-.23-.35.73.73,0,0,1-.17-.4,3.08,3.08,0,0,1-.24-.27.6.6,0,0,0-.33-.2.71.71,0,0,0-.2-.36,1,1,0,0,1-.23-.39,2.38,2.38,0,0,1-.19-.41.5.5,0,0,1-.08-.2.5.5,0,0,0-.08-.2.63.63,0,0,0-.26-.25.51.51,0,0,1-.24-.35c-.16,0-.27,0-.32-.14a.41.41,0,0,0-.3-.17,2.54,2.54,0,0,0-.39-.56,2.67,2.67,0,0,1-.42-.6,2.77,2.77,0,0,1-.79-.56,3.07,3.07,0,0,0-.81-.59.67.67,0,0,0-.56-.35.77.77,0,0,0-.13.52,1.61,1.61,0,0,1,0,.58,3.75,3.75,0,0,1-.11.67,5.13,5.13,0,0,1-.17.58c0,.1,0,.17,0,.2s.09.1.07.2-.05.14-.08.22a.44.44,0,0,0,0,.25.61.61,0,0,0,.08.3.74.74,0,0,1,.08.36,1.67,1.67,0,0,1,0,.56c0,.23-.09.43-.11.59a1.43,1.43,0,0,1,0,.32.5.5,0,0,0,0,.12v.44a3.17,3.17,0,0,1,0,.41,1.28,1.28,0,0,1,0,.51,2.77,2.77,0,0,0-.09.33c0,.15,0,.23,0,.25a.12.12,0,0,0,0,.09.58.58,0,0,0,0,.19.22.22,0,0,1,0,.16,1.94,1.94,0,0,1-.11.53,1,1,0,0,0,0,.53,1.68,1.68,0,0,0,.1.3.17.17,0,0,1,0,.14.65.65,0,0,1-.22.37.45.45,0,0,0-.19.35,1.62,1.62,0,0,0-.67.06.74.74,0,0,1-.58-.06l-.53.12a2.05,2.05,0,0,1-.6,0,1.09,1.09,0,0,0-.45-.06.17.17,0,0,1-.17,0,6.81,6.81,0,0,0-.16-1,.81.81,0,0,1,.16-.72.63.63,0,0,0,0-.19.41.41,0,0,1,0-.22,1.49,1.49,0,0,0,0-.5,1,1,0,0,1,0-.28,1.14,1.14,0,0,1,.07-.22.32.32,0,0,0,0-.19.6.6,0,0,0,0-.32,1.13,1.13,0,0,1-.06-.36,2.26,2.26,0,0,1,0-.35,2.14,2.14,0,0,0,0-.34.93.93,0,0,0-.08-.34.38.38,0,0,1,0-.38.77.77,0,0,0,0-.37,4.26,4.26,0,0,1,0-.5,1.32,1.32,0,0,1,0-.29c0-.08,0-.17,0-.28s0-.24,0-.36,0-.22,0-.32a.82.82,0,0,1,0-.18.24.24,0,0,0,0-.17,1.22,1.22,0,0,1,0-.44,2.36,2.36,0,0,0,0-.25,1.13,1.13,0,0,0,0-.32,1.72,1.72,0,0,1,0-.39,1,1,0,0,0,0-.25.71.71,0,0,1,0-.29,1.08,1.08,0,0,0,0-.37l-.06-.19a.68.68,0,0,1,0-.19.66.66,0,0,0,0-.21,3.07,3.07,0,0,0-.06-.57,2.89,2.89,0,0,1-.06-.56c0-.41,0-.64-.07-.69a1.9,1.9,0,0,0,.1-.28c0-.08,0-.17.06-.28a3.37,3.37,0,0,0,0-.44,1.88,1.88,0,0,1,0-.56l.08-.16a.39.39,0,0,0,0-.18,1,1,0,0,0,0-.25.66.66,0,0,1,0-.28q0-.28,0-.6c0-.21.06-.41.1-.62a1,1,0,0,0,0-.41,1,1,0,0,1,0-.22,1.29,1.29,0,0,1,.06-.4.82.82,0,0,0,0-.44,1.16,1.16,0,0,0,0-.17,1.1,1.1,0,0,1,0-.27,1.63,1.63,0,0,0,0-.45,1.31,1.31,0,0,1,0-.27c0-.16,0-.26,0-.28a.12.12,0,0,1,0-.09c0-.09,0-.14,0-.17a.39.39,0,0,1,0-.18c0-.16,0-.3,0-.42a2.91,2.91,0,0,0,0-.48c0-.15,0-.23,0-.25s0-.05,0-.1a.56.56,0,0,0-.06-.22c0-.08-.09-.16-.13-.25a1,1,0,0,0,0-.43,2.09,2.09,0,0,1,0-.5.67.67,0,0,1,0-.17.49.49,0,0,0,0-.18,1.35,1.35,0,0,1-.11-.36.58.58,0,0,0,0-.17,1.52,1.52,0,0,0-.09-.25.4.4,0,0,1-.07-.22.59.59,0,0,1,.1-.34l.18-.31a.83.83,0,0,1,.15-.11.26.26,0,0,1,.2,0l.14-.14.17-.14a.45.45,0,0,1,.39,0,1.28,1.28,0,0,0,.3.17,1.8,1.8,0,0,1,.53,0,2.69,2.69,0,0,0,.62,0,1.5,1.5,0,0,1,.41,0h.19a3.19,3.19,0,0,1,.65-.09,2.76,2.76,0,0,1,.44,0,.8.8,0,0,1,.3,0,.14.14,0,0,0,.11,0,.39.39,0,0,1,.28,0l.25.08a4.19,4.19,0,0,0,.5,0,4.19,4.19,0,0,1,.5,0l.52.06a1.91,1.91,0,0,1,.51.13.82.82,0,0,1,.19.09.66.66,0,0,0,.19.09.68.68,0,0,0,.29,0,.72.72,0,0,1,.33.05,3.22,3.22,0,0,1,.67.2,3.41,3.41,0,0,0,.67.2,1.79,1.79,0,0,0,.35.11.91.91,0,0,1,.34.17,3.67,3.67,0,0,1,.78.08,2.8,2.8,0,0,1,.6.21l.36.12a.78.78,0,0,1,.32.19l.29.22a2.32,2.32,0,0,1,.25.22,1.19,1.19,0,0,1,.23.23.76.76,0,0,0,.11.14,1.14,1.14,0,0,1,.23.25.37.37,0,0,0,.11.13,1.07,1.07,0,0,1,.24.17.45.45,0,0,0,.17.11.64.64,0,0,0,.23.37,3,3,0,0,1,.33.28,1.58,1.58,0,0,1,.19.44.27.27,0,0,0,.16.22,4.79,4.79,0,0,1,.18.94.88.88,0,0,0,.28.62,1,1,0,0,0,0,.46l.17.42a.49.49,0,0,0,0,.29,1.53,1.53,0,0,1,0,.3.67.67,0,0,1-.07.31.21.21,0,0,0,0,.28c-.08.25-.16.51-.23.77a2.68,2.68,0,0,1-.33.73.46.46,0,0,0-.09.15s-.09.07-.19.07a.28.28,0,0,1-.06.27.26.26,0,0,0-.1.23,3.86,3.86,0,0,0-.39.3,3,3,0,0,0-.3.39.83.83,0,0,1-.17.19l-.23.15a3,3,0,0,1-.38.22l-.22.13a.75.75,0,0,0-.26.15.26.26,0,0,1-.11.1l-.2.11a1.39,1.39,0,0,0-.21.11,1.21,1.21,0,0,1-.26.18l-.11.07c-.19.08-.39.16-.61.23a2.6,2.6,0,0,0-.64.33.34.34,0,0,0-.31,0,1.87,1.87,0,0,1-.35.16,1.08,1.08,0,0,1-.42,0c-.11,0-.19.07-.23.24a.22.22,0,0,0,.14.31,2.13,2.13,0,0,1,.39.25,1.28,1.28,0,0,0,.17.3.59.59,0,0,0,.3.2,1.06,1.06,0,0,1,.29.44.31.31,0,0,0,.3.22,1.63,1.63,0,0,0,.25.4c.15.13.22.21.23.25a.5.5,0,0,0,0,.13.84.84,0,0,0,.22.28.1.1,0,0,1,.06.09l.27.41a1.63,1.63,0,0,1,.2.47l.19.19a1.42,1.42,0,0,0,.22.18.32.32,0,0,0,0,.19.27.27,0,0,1,0,.19c.13.15.26.29.41.44a1.22,1.22,0,0,1,.31.56,1.07,1.07,0,0,1,.16.14.33.33,0,0,0,.18.11,1.55,1.55,0,0,0,.3.55,3.42,3.42,0,0,1,.39.51,1.14,1.14,0,0,0,.28.31,2.1,2.1,0,0,1,.22.33,1.9,1.9,0,0,0,.22.33c.1.17.18.31.23.42a.43.43,0,0,0,.24.24.45.45,0,0,0,.11.23.28.28,0,0,1,0,.27,2,2,0,0,1,.25.14,2,2,0,0,0,.29.14c0,.16.07.31.11.42A.64.64,0,0,1,1376,1048.43Zm-4.34-16.56a1.64,1.64,0,0,1-.18-.44.69.69,0,0,0,0-.19.42.42,0,0,0-.11-.16.67.67,0,0,1-.14-.15,1.32,1.32,0,0,0-.28-.41.44.44,0,0,1-.16-.17.27.27,0,0,0-.16-.14,1.58,1.58,0,0,1-.32-.31.21.21,0,0,0-.24-.1.34.34,0,0,0-.26-.23.33.33,0,0,1-.27-.24,1.1,1.1,0,0,1-.41-.12,3.81,3.81,0,0,1-.34-.22.56.56,0,0,0-.17.09.26.26,0,0,1-.24,0,.88.88,0,0,1-.26-.1,1,1,0,0,0-.27-.09,1.49,1.49,0,0,1-.5,0,.91.91,0,0,0-.25,0,1.31,1.31,0,0,0-.5-.13,1.93,1.93,0,0,0-.53,0l-.56.07a8.52,8.52,0,0,1-1-.06,4.18,4.18,0,0,0-1,0,.18.18,0,0,0,0,.21.32.32,0,0,1,.08.23,1.84,1.84,0,0,0,0,.48,1.39,1.39,0,0,1,0,.27.62.62,0,0,0,0,.31.26.26,0,0,1,0,.1v.53a3.52,3.52,0,0,0,0,.79,7.12,7.12,0,0,1,0,.8c0,.31,0,.59,0,.83s0,.48,0,.73a1.19,1.19,0,0,1,0,.46.59.59,0,0,0,0,.23,1.89,1.89,0,0,0,.07.69,2.63,2.63,0,0,0,.67.09h.48a1,1,0,0,0,.27,0l.17,0,.58.08a1.43,1.43,0,0,0,.58,0h.29l.3,0a1.29,1.29,0,0,1,.36-.09h.17a3.1,3.1,0,0,1,.47-.14.64.64,0,0,0,.19,0l.9-.34a7.06,7.06,0,0,1,.68-.22l.42-.1a.49.49,0,0,1,.37-.34.45.45,0,0,0,.35-.41.36.36,0,0,1,.2-.06.14.14,0,0,0,.14-.12c.06-.19.13-.39.19-.6a1.73,1.73,0,0,1,.25-.53c0-.16,0-.27,0-.33A.89.89,0,0,0,1371.67,1031.87Z"/>
        <path d="M1394,1025.68a.79.79,0,0,1,.16.23,1.67,1.67,0,0,1,.08.3.63.63,0,0,1,0,.3.27.27,0,0,1-.23.17c.08.08.1.16.06.23a.6.6,0,0,0-.06.27,4,4,0,0,0,0,.69,2.33,2.33,0,0,1,0,.65.66.66,0,0,1-.1.27l-.12.23a1.46,1.46,0,0,1-.13.28.62.62,0,0,1-.12.19.69.69,0,0,1-.63,0,1,1,0,0,0-.68,0,.6.6,0,0,0-.5-.12.6.6,0,0,1-.53-.16,1,1,0,0,1-.55,0,4.71,4.71,0,0,0-.58-.09l-.19,0a.28.28,0,0,1-.18,0,1.35,1.35,0,0,1-.32-.11.71.71,0,0,0-.31-.08.47.47,0,0,0-.26,0,1,1,0,0,1-.3,0H1388c-.29,0-.6-.07-.91-.09l-1.06-.09a7.45,7.45,0,0,0-1-.07,9,9,0,0,0-1,.07,1.11,1.11,0,0,0-.11.64c0,.22.06.44.08.67s0,.46,0,.69,0,.46,0,.68a.76.76,0,0,1,0,.21.75.75,0,0,0,0,.2,4.54,4.54,0,0,0,0,.47,5.13,5.13,0,0,1,0,.53,2.21,2.21,0,0,1,0,.39.58.58,0,0,0,.06.36,2.08,2.08,0,0,0,.63.09,2,2,0,0,0,.42,0h.39c.23,0,.45,0,.67,0h1.72q.52,0,1.14-.06a4.85,4.85,0,0,0,.55-.08.86.86,0,0,1,.55.11.87.87,0,0,1,.32-.06,1.69,1.69,0,0,0,.33,0,.52.52,0,0,1,.25,0,.85.85,0,0,0,.25,0,5,5,0,0,1,.78,0l.53,0,.3-.06a.61.61,0,0,1,.27,0c.1,0,.16,0,.17.11a.5.5,0,0,0,.08.2,1.2,1.2,0,0,1,.12.52c0,.18,0,.39,0,.64a.61.61,0,0,1,0,.3.56.56,0,0,0,0,.23,4.43,4.43,0,0,0,0,.73,2.87,2.87,0,0,0,.15.68l-.12.32a.67.67,0,0,1-.19.3.28.28,0,0,0-.22,0,.32.32,0,0,1-.18.06.57.57,0,0,1-.25,0l-.22-.11c0-.06-.11-.07-.21,0s-.13,0-.11-.14a1.16,1.16,0,0,1-.53.21.38.38,0,0,0-.31.14.46.46,0,0,0-.36-.11,1.78,1.78,0,0,0-.39.07,1.14,1.14,0,0,0-.33-.07l-.45,0a.47.47,0,0,0-.36,0,2,2,0,0,1-.36.13,1,1,0,0,0-.56,0l-.47.16c-.1,0-.17,0-.19-.08s-.08-.1-.19-.08a.47.47,0,0,1-.35.08.36.36,0,0,0-.33.11.47.47,0,0,0-.46-.08.44.44,0,0,1-.48-.11c0,.09-.1.11-.17.08a.48.48,0,0,0-.27,0,.85.85,0,0,0-.23,0,.93.93,0,0,1-.24,0,.77.77,0,0,1-.36,0,.45.45,0,0,0-.36,0,.23.23,0,0,0-.12.25,1,1,0,0,1,0,.34l-.06.19a.63.63,0,0,0,0,.19.59.59,0,0,0,0,.23.39.39,0,0,1,0,.24,2.13,2.13,0,0,1-.08.53c-.05.19-.1.37-.14.56a3.76,3.76,0,0,0-.13.78.84.84,0,0,1-.15.5.83.83,0,0,1,.09.35,4.33,4.33,0,0,1,0,.53v.92a1.52,1.52,0,0,1-.06.42l-.06.19a.58.58,0,0,0,0,.19.69.69,0,0,0,0,.34.59.59,0,0,1,0,.37,1,1,0,0,0,.61.13c.22,0,.47,0,.76,0s.72,0,1.08-.1a9.17,9.17,0,0,1,1-.06,1.63,1.63,0,0,1,.45.06.61.61,0,0,0,.42,0,4.83,4.83,0,0,1,.52-.1,1.66,1.66,0,0,1,.54,0,2.49,2.49,0,0,1,.55,0l.39,0h.52l.48,0,.24-.06a.85.85,0,0,1,.23,0,.9.9,0,0,0,.31,0l.16,0a.36.36,0,0,0,.25,0l.09,0a.34.34,0,0,0,.31,0,.81.81,0,0,1,.47,0,.26.26,0,0,1,.11.21.27.27,0,0,0,.11.2c0,.1,0,.17.06.19a.18.18,0,0,1,.13.15,7.41,7.41,0,0,1,0,1.49c-.06.49-.11,1-.13,1.54a.43.43,0,0,1-.15.15l-.22.1a1.37,1.37,0,0,1-.2.13.53.53,0,0,1-.24.06.73.73,0,0,1-.25,0,1.21,1.21,0,0,0-.25-.08l-.3,0a1.51,1.51,0,0,1-.32,0l-.55,0-.61-.06c-.23,0-.44,0-.64,0a1,1,0,0,1-.45-.11c-.11,0-.18,0-.22,0a.28.28,0,0,1-.22.07,2.41,2.41,0,0,0-.67-.09l-.77,0a1.68,1.68,0,0,0-.55,0,3.4,3.4,0,0,1-.57,0,2.26,2.26,0,0,1-.52,0,2.26,2.26,0,0,0-.52,0,2.76,2.76,0,0,0-.51,0,1.34,1.34,0,0,1-.49,0,.68.68,0,0,1-.26,0,.68.68,0,0,0-.27,0,.63.63,0,0,1-.31,0,.56.56,0,0,0-.25,0,2.94,2.94,0,0,0-.53-.08,1.11,1.11,0,0,1-.53-.17.34.34,0,0,1-.24,0,.85.85,0,0,0-.23,0,.73.73,0,0,1-.25,0h-.16a2.17,2.17,0,0,0-.42.11.67.67,0,0,1-.42,0,.52.52,0,0,1-.25-.28,2.9,2.9,0,0,0-.09-.28c0-.06-.05-.13-.08-.2a.6.6,0,0,1,0-.24.57.57,0,0,1,0-.26.49.49,0,0,0,0-.24,1.4,1.4,0,0,0-.09-.29c0-.1-.09-.18-.13-.27a1.83,1.83,0,0,0,0-.66,2.49,2.49,0,0,1,0-.68,2,2,0,0,1,0-.41,1,1,0,0,0,0-.22.68.68,0,0,0,0-.19l-.06-.18c0-.11,0-.16,0-.17s0-.07,0-.18a2.46,2.46,0,0,0-.14-.53.83.83,0,0,1,0-.56.4.4,0,0,0,0-.28.41.41,0,0,1,0-.16,1.39,1.39,0,0,1,0-.33c0-.11.07-.23.11-.36a1,1,0,0,0,0-.26c0-.07,0-.15-.07-.24s0-.23,0-.26a.2.2,0,0,1-.05-.14,1.07,1.07,0,0,1,0-.25.73.73,0,0,0,0-.25,1.12,1.12,0,0,1,0-.45.29.29,0,0,0-.11-.33.9.9,0,0,0,.08-.64,3.22,3.22,0,0,1-.08-.71.66.66,0,0,1,0-.28c0-.08,0-.17.06-.28a.85.85,0,0,0,0-.23.93.93,0,0,1,0-.24,2.19,2.19,0,0,0,0-.36v-.39a.68.68,0,0,1,0-.19.39.39,0,0,0,0-.18.56.56,0,0,1-.07-.21,1.11,1.11,0,0,1,0-.23c0-.19,0-.3.1-.34l-.11-.25c0-.07,0-.15.07-.25-.08-.23-.1-.37-.07-.41a.32.32,0,0,0,0-.19c0-.23,0-.43-.06-.61a4.49,4.49,0,0,1,0-.51.82.82,0,0,1,0-.21.75.75,0,0,0,0-.2.85.85,0,0,0,0-.25.41.41,0,0,1,0-.22,3.35,3.35,0,0,0,.16-.83.9.9,0,0,1,.15-.51,1.37,1.37,0,0,1-.09-1,5.24,5.24,0,0,0,.12-1.11,3.59,3.59,0,0,0,0-.8,3.8,3.8,0,0,1,0-.89,1.4,1.4,0,0,0,0-.56,1.48,1.48,0,0,1-.06-.38.85.85,0,0,1,.06-.31l.13-.31c0-.09.08-.16.11-.24a.35.35,0,0,1,.17-.17,9.06,9.06,0,0,0,2.64.11,13.83,13.83,0,0,1,2.48,0l.68.14a3.75,3.75,0,0,0,.67.11,1.31,1.31,0,0,0,.44,0,4.65,4.65,0,0,1,.56-.08,1.69,1.69,0,0,0,.42,0l.17,0a.78.78,0,0,1,.28,0,.86.86,0,0,0,.28,0,1.67,1.67,0,0,0,.47.07l.47,0,.41,0a1.62,1.62,0,0,1,.44,0,3.81,3.81,0,0,1,.68.07,5.62,5.62,0,0,0,.78.11,1,1,0,0,1,.36,0l.21.07a3.75,3.75,0,0,0,.81,0A3.44,3.44,0,0,1,1394,1025.68Z"/>
        <path d="M1411.2,1028.24a.47.47,0,0,1-.11.44.94.94,0,0,0-.24.5.58.58,0,0,1-.15.11.33.33,0,0,0-.16.17c-.08.17-.18.26-.28.28a1.33,1.33,0,0,1-.23.41,1.77,1.77,0,0,0-.27.37c0,.11,0,.16-.11.17a.38.38,0,0,0-.17.08,1.28,1.28,0,0,1-.56.91,2.46,2.46,0,0,1-.69-.16.29.29,0,0,1-.08-.25.54.54,0,0,0-.05-.28,2.18,2.18,0,0,0-.12-.22,1.42,1.42,0,0,1-.13-.22,1.19,1.19,0,0,0-.15-.18l-.16-.16a.42.42,0,0,0-.19-.23l-.12-.08c0-.07-.09-.13-.13-.19l-.12-.19-.14-.15a1.22,1.22,0,0,0-.14-.16l-.22-.11a.19.19,0,0,1-.1-.08,2.1,2.1,0,0,0-.78-.19,3.51,3.51,0,0,1-.59,0,.63.63,0,0,1-.19,0,.69.69,0,0,0-.22,0l-.15,0-.19.06a.31.31,0,0,1-.19,0,.24.24,0,0,0-.15,0,.62.62,0,0,0-.22.17.34.34,0,0,1-.25.11,1.45,1.45,0,0,1-.33.45.74.74,0,0,0-.24.3c0,.06-.05.2-.09.4s-.09.37-.16.6a1.72,1.72,0,0,0-.06.62,1.38,1.38,0,0,0,.13.64,2.62,2.62,0,0,1,.18.58.32.32,0,0,1,.18.16c0,.06.06.13.11.22l.17.18a.35.35,0,0,0,.23.13.32.32,0,0,0,.06.22.21.21,0,0,1,.07.18,2.8,2.8,0,0,1,.56.47.59.59,0,0,0,.23.27c.08,0,.09.09,0,.17a.6.6,0,0,1,.31.16l.16.15a1.67,1.67,0,0,1,.5.39,1,1,0,0,0,.41.33.45.45,0,0,0,.12.25.59.59,0,0,1,.13.25.19.19,0,0,1,.21.06.23.23,0,0,0,.25.07.45.45,0,0,0,.18.22l.23.12.56.44a3.36,3.36,0,0,1,.41.34.58.58,0,0,0,.12.14.69.69,0,0,1,.13.11,8.68,8.68,0,0,1,.69.71,4,4,0,0,0,.5.51,2.57,2.57,0,0,0,.43.88,1,1,0,0,0,.29.56.9.9,0,0,0,.06.51,3.54,3.54,0,0,0,.19.39c0,.11.07.23.11.38a.94.94,0,0,1,0,.37.47.47,0,0,1,0,.24.25.25,0,0,0,0,.17,1.06,1.06,0,0,0,0,.31c0,.11.05.22.08.35a1,1,0,0,0,0,.42.51.51,0,0,1,0,.2c0,.13-.06.25-.1.38a.59.59,0,0,0,0,.37.36.36,0,0,0-.09.41.38.38,0,0,1-.1.22,1,1,0,0,0-.12.15,1,1,0,0,1-.06.5,1.66,1.66,0,0,1-.17.32.46.46,0,0,1-.27.18c0,.15,0,.24,0,.27a.29.29,0,0,0-.11.11,1,1,0,0,1-.29.42,2.55,2.55,0,0,0-.33.33c-.09.1-.18.21-.28.31l-.32.31-.2.22a1.92,1.92,0,0,1-.17.19.41.41,0,0,1-.2.09,1.76,1.76,0,0,0-.3.1l-.55.22a2.55,2.55,0,0,1-.45.09,1.16,1.16,0,0,0-.39.08.27.27,0,0,1-.14,0,.73.73,0,0,1-.27,0l-.23-.08a.91.91,0,0,1-.5.09l-.6-.09a3,3,0,0,0-.42,0,.84.84,0,0,1-.42-.11l-.41.16a4.26,4.26,0,0,0-.62-.13,4.2,4.2,0,0,1-.66-.12l-.25-.09-.25-.13a.67.67,0,0,0-.31,0,.52.52,0,0,1-.28,0l-.19-.14a1.33,1.33,0,0,0-.19-.14,1.71,1.71,0,0,0-.35-.22.38.38,0,0,1-.21-.22.39.39,0,0,1-.44-.13.41.41,0,0,0-.37-.18.21.21,0,0,1,0-.18.19.19,0,0,0,0-.17q-.17-.06-.21,0a.14.14,0,0,1-.17,0,1.18,1.18,0,0,0-.11-.18,1.39,1.39,0,0,1-.11-.19.78.78,0,0,0-.22-.13.7.7,0,0,1-.28-.22.77.77,0,0,0-.15-.2.29.29,0,0,1-.1-.08,3.19,3.19,0,0,1-.29-.54,1.59,1.59,0,0,0-.27-.43v-.4a7.39,7.39,0,0,0-.42-.66,1.35,1.35,0,0,1-.24-.84.37.37,0,0,0,.14-.14,1.71,1.71,0,0,1,.11-.14.54.54,0,0,1,.21-.08.5.5,0,0,0,.2-.08,2.68,2.68,0,0,1,.34-.16.36.36,0,0,0,.25-.28.61.61,0,0,0,.28-.06l.29-.12a1.56,1.56,0,0,1,.28-.18l.12,0,.17-.19a1.37,1.37,0,0,1,.18-.16c.12,0,.2,0,.23,0s.13,0,.3.08a1.34,1.34,0,0,1,.5.84,1.26,1.26,0,0,0,.17.47l.2.31a3.55,3.55,0,0,0,.41.47,2.79,2.79,0,0,0,.53.44,2.9,2.9,0,0,1,.34.25l.28.22a.88.88,0,0,0,.24,0l.3,0,.21.06.19,0a4.88,4.88,0,0,0,.88,0,3.59,3.59,0,0,0,.78-.14l.48-.14a1.63,1.63,0,0,0,.42-.2,3,3,0,0,0,.4-.35,2,2,0,0,0,.29-.47.74.74,0,0,1,.11-.26.16.16,0,0,0,0-.11.73.73,0,0,0,0-.22,1.49,1.49,0,0,1,0-.28l.06-.27a.57.57,0,0,1,.07-.2,1.52,1.52,0,0,0-.07-.45,2.88,2.88,0,0,1-.09-.46c-.08-.1-.18-.2-.28-.31a.78.78,0,0,1-.22-.41l-.52-.43a1,1,0,0,1-.32-.66.58.58,0,0,0-.22-.08.39.39,0,0,1-.22-.08.76.76,0,0,0-.17-.5l-.36-.37a.71.71,0,0,0-.11-.17l-.14-.11c-.09-.15-.17-.23-.25-.25s-.26-.21-.41-.31a4.84,4.84,0,0,1-.73-.71,4.59,4.59,0,0,0-.8-.73.76.76,0,0,0-.16-.41,1.85,1.85,0,0,0-.28-.28,2.2,2.2,0,0,0-.59-1.12.33.33,0,0,0,0-.25,1.91,1.91,0,0,1-.13-.25,1.34,1.34,0,0,0-.15-.3l-.1-.11a3,3,0,0,1-.08-.52,1.22,1.22,0,0,0-.14-.51,1.13,1.13,0,0,1,.08-.22.58.58,0,0,0,0-.25,2.47,2.47,0,0,1-.1-.47q0-.12-.09-.12a.64.64,0,0,0,0-.43,1.87,1.87,0,0,1-.13-.42,2.42,2.42,0,0,1,0-.45q0-.24.06-.39a1.08,1.08,0,0,1,.06-.5c.06-.17.12-.29.16-.38a2.18,2.18,0,0,1,.25-.56c.1-.16.2-.33.29-.5a1.37,1.37,0,0,0,.18-.47.58.58,0,0,0,.28-.28.85.85,0,0,1,.22-.31l.46-.38.4-.28.35-.22a1.16,1.16,0,0,0,.38-.15.19.19,0,0,1,.12-.07,1.35,1.35,0,0,0,.32-.06l.09,0a1.67,1.67,0,0,1,.44-.06l.47,0,.34,0a1.45,1.45,0,0,1,.44,0l.22.08a1,1,0,0,0,.22.07,3.35,3.35,0,0,0,1,0l.2.15.2.14a1.2,1.2,0,0,1,.72.31,2.09,2.09,0,0,1,.75.26l.47.33.16.06a.19.19,0,0,0,.18,0,.82.82,0,0,0,.24.3,3,3,0,0,1,.26.24,5.64,5.64,0,0,0,.61.21,1.62,1.62,0,0,1,.42.19.6.6,0,0,0,.19.08.3.3,0,0,1,.16.08A.52.52,0,0,1,1411.2,1028.24Z"/>
        <path d="M1429.07,1025.68a.79.79,0,0,1,.16.23,1.11,1.11,0,0,1,.08.3.77.77,0,0,1,0,.3.28.28,0,0,1-.24.17c.08.08.1.16.06.23a.6.6,0,0,0-.06.27,4,4,0,0,0,0,.69,2.33,2.33,0,0,1,0,.65.85.85,0,0,1-.09.27,1.71,1.71,0,0,0-.13.23,2.61,2.61,0,0,1-.12.28.87.87,0,0,1-.13.19.66.66,0,0,1-.62,0,1,1,0,0,0-.69,0,.6.6,0,0,0-.5-.12.6.6,0,0,1-.53-.16,1,1,0,0,1-.55,0,4.71,4.71,0,0,0-.58-.09l-.19,0a.28.28,0,0,1-.18,0,1.35,1.35,0,0,1-.32-.11.68.68,0,0,0-.31-.08.47.47,0,0,0-.26,0,1,1,0,0,1-.3,0H1423c-.29,0-.6-.07-.91-.09l-1.06-.09a7.45,7.45,0,0,0-1-.07,9,9,0,0,0-1,.07,1.11,1.11,0,0,0-.11.64c0,.22.06.44.08.67s0,.46,0,.69,0,.46,0,.68a.76.76,0,0,1,0,.21.75.75,0,0,0,0,.2,4.54,4.54,0,0,0,0,.47,5.13,5.13,0,0,1,0,.53,2.21,2.21,0,0,1,0,.39.58.58,0,0,0,.06.36,2.08,2.08,0,0,0,.63.09,2.12,2.12,0,0,0,.42,0h.39c.23,0,.46,0,.67,0H1423q.52,0,1.14-.06a4.85,4.85,0,0,0,.55-.08.86.86,0,0,1,.55.11.88.88,0,0,1,.33-.06,1.66,1.66,0,0,0,.32,0,.52.52,0,0,1,.25,0,.9.9,0,0,0,.25,0,5,5,0,0,1,.78,0l.54,0,.29-.06a.61.61,0,0,1,.27,0c.1,0,.16,0,.17.11a.5.5,0,0,0,.08.2,1.2,1.2,0,0,1,.12.52c0,.18,0,.39,0,.64a.61.61,0,0,1,0,.3.8.8,0,0,0,0,.23,4.43,4.43,0,0,0,0,.73,2.48,2.48,0,0,0,.16.68,3.05,3.05,0,0,0-.13.32.67.67,0,0,1-.19.3.28.28,0,0,0-.22,0,.32.32,0,0,1-.18.06.57.57,0,0,1-.25,0l-.22-.11c0-.06-.11-.07-.2,0s-.14,0-.11-.14a1.24,1.24,0,0,1-.54.21.38.38,0,0,0-.31.14.46.46,0,0,0-.36-.11,1.78,1.78,0,0,0-.39.07,1.14,1.14,0,0,0-.33-.07l-.45,0a.47.47,0,0,0-.36,0,1.58,1.58,0,0,1-.36.13,1,1,0,0,0-.56,0l-.47.16c-.1,0-.17,0-.19-.08s-.08-.1-.18-.08a.51.51,0,0,1-.36.08.36.36,0,0,0-.33.11.46.46,0,0,0-.45-.08.46.46,0,0,1-.49-.11c0,.09-.1.11-.17.08a.48.48,0,0,0-.27,0,.85.85,0,0,0-.23,0,.88.88,0,0,1-.24,0,.73.73,0,0,1-.35,0,.44.44,0,0,0-.36,0,.22.22,0,0,0-.13.25,1,1,0,0,1,0,.34l-.06.19a.63.63,0,0,0,0,.19.59.59,0,0,0,0,.23.33.33,0,0,1,0,.24,2.13,2.13,0,0,1-.08.53c0,.19-.1.37-.14.56a3.62,3.62,0,0,0-.12.78.85.85,0,0,1-.16.5.83.83,0,0,1,.09.35,4.33,4.33,0,0,1,0,.53v.92a1.52,1.52,0,0,1-.06.42l-.06.19a.58.58,0,0,0,0,.19.69.69,0,0,0,0,.34.59.59,0,0,1,0,.37,1,1,0,0,0,.61.13c.22,0,.47,0,.76,0s.72,0,1.08-.1a9.32,9.32,0,0,1,1-.06,1.63,1.63,0,0,1,.45.06.61.61,0,0,0,.42,0,4.83,4.83,0,0,1,.52-.1,1.67,1.67,0,0,1,.54,0,2.48,2.48,0,0,1,.55,0l.39,0h.52l.48,0,.24-.06a.85.85,0,0,1,.23,0,.9.9,0,0,0,.31,0l.16,0a.36.36,0,0,0,.25,0l.09,0a.36.36,0,0,0,.32,0,.78.78,0,0,1,.46,0,.26.26,0,0,1,.11.21.27.27,0,0,0,.11.2c0,.1,0,.17.07.19a.19.19,0,0,1,.12.15,7.41,7.41,0,0,1,0,1.49c-.06.49-.1,1-.13,1.54a.43.43,0,0,1-.15.15l-.22.1a1.37,1.37,0,0,1-.2.13.5.5,0,0,1-.24.06.77.77,0,0,1-.25,0,1,1,0,0,0-.25-.08,1.36,1.36,0,0,0-.29,0,1.69,1.69,0,0,1-.33,0l-.55,0-.61-.06c-.23,0-.44,0-.64,0a1,1,0,0,1-.45-.11c-.11,0-.18,0-.22,0a.28.28,0,0,1-.22.07,2.41,2.41,0,0,0-.67-.09l-.77,0a1.61,1.61,0,0,0-.54,0,3.52,3.52,0,0,1-.58,0,2.26,2.26,0,0,1-.52,0,2.17,2.17,0,0,0-.51,0,2.78,2.78,0,0,0-.52,0,1.29,1.29,0,0,1-.48,0,.7.7,0,0,1-.27,0,.68.68,0,0,0-.27,0,.64.64,0,0,1-.31,0,.53.53,0,0,0-.25,0,2.81,2.81,0,0,0-.53-.08,1.14,1.14,0,0,1-.53-.17.32.32,0,0,1-.23,0l-.24,0a.73.73,0,0,1-.25,0h-.16a2.17,2.17,0,0,0-.42.11.67.67,0,0,1-.42,0,.52.52,0,0,1-.25-.28,2.9,2.9,0,0,0-.09-.28l-.08-.2a.6.6,0,0,1,0-.24.57.57,0,0,1,0-.26.49.49,0,0,0,0-.24,1.4,1.4,0,0,0-.09-.29c0-.1-.09-.18-.13-.27a1.83,1.83,0,0,0,0-.66,2.49,2.49,0,0,1,0-.68,2,2,0,0,1,0-.41,1,1,0,0,0,0-.22.68.68,0,0,0,0-.19l-.06-.18c0-.11,0-.16,0-.17s0-.07,0-.18a2.46,2.46,0,0,0-.14-.53.83.83,0,0,1,0-.56.35.35,0,0,0,0-.28.41.41,0,0,1-.05-.16,1.39,1.39,0,0,1,.05-.33c0-.11.07-.23.11-.36a1,1,0,0,0,0-.26q0-.1-.06-.24c0-.14,0-.23,0-.26a.2.2,0,0,1,0-.14.73.73,0,0,1,0-.25,1.07,1.07,0,0,0,0-.25,1.33,1.33,0,0,1,0-.45.29.29,0,0,0-.11-.33.9.9,0,0,0,.08-.64,3.22,3.22,0,0,1-.08-.71.66.66,0,0,1,0-.28l.07-.28a.59.59,0,0,0,0-.23.93.93,0,0,1,0-.24,2.19,2.19,0,0,0,0-.36v-.39a.46.46,0,0,1,0-.19.57.57,0,0,0,0-.18,1.65,1.65,0,0,1-.07-.21,1.11,1.11,0,0,1,0-.23c0-.19,0-.3.1-.34a2.22,2.22,0,0,0-.11-.25c0-.07,0-.15.08-.25-.09-.23-.11-.37-.08-.41a.32.32,0,0,0,0-.19c0-.23,0-.43-.06-.61a4.49,4.49,0,0,1,0-.51.82.82,0,0,1,0-.21.75.75,0,0,0,0-.2.85.85,0,0,0,0-.25.41.41,0,0,1,0-.22,2.94,2.94,0,0,0,.16-.83.9.9,0,0,1,.15-.51,1.37,1.37,0,0,1-.09-1,5.25,5.25,0,0,0,.13-1.11,4.34,4.34,0,0,0,0-.8,3.34,3.34,0,0,1,0-.89,1.38,1.38,0,0,0,0-.56,1.48,1.48,0,0,1-.06-.38.85.85,0,0,1,.06-.31c0-.1.09-.21.13-.31s.08-.16.11-.24a.35.35,0,0,1,.17-.17,9.06,9.06,0,0,0,2.64.11,13.94,13.94,0,0,1,2.49,0l.67.14a3.75,3.75,0,0,0,.67.11,1.3,1.3,0,0,0,.44,0,4.65,4.65,0,0,1,.56-.08,1.69,1.69,0,0,0,.42,0l.17,0a.78.78,0,0,1,.28,0,.88.88,0,0,0,.29,0,1.56,1.56,0,0,0,.46.07l.47,0,.41,0a1.62,1.62,0,0,1,.44,0,3.81,3.81,0,0,1,.68.07,6,6,0,0,0,.79.11,1.06,1.06,0,0,1,.36,0l.2.07a3.75,3.75,0,0,0,.81,0A3.44,3.44,0,0,1,1429.07,1025.68Z"/>
        <path d="M1445.42,1029c0,.17,0,.31.06.44a.37.37,0,0,1-.13.34l-.47,0a2.17,2.17,0,0,1-.53,0,2.08,2.08,0,0,0-.42-.06h-.26a.62.62,0,0,1-.21,0l-.2,0h-.34a2.88,2.88,0,0,0-.83,0l-.83.12a1.3,1.3,0,0,0,0,.38s0,.06,0,.06a.79.79,0,0,0,0,.34,1.28,1.28,0,0,1,0,.19.63.63,0,0,1,0,.19.31.31,0,0,0,0,.19.49.49,0,0,0,0,.15l.06.19a3.89,3.89,0,0,1,0,.44,2.09,2.09,0,0,0,0,.5.57.57,0,0,0,0,.18c0,.07,0,.14.07.22a.54.54,0,0,1,0,.22.5.5,0,0,0,0,.22.67.67,0,0,0,.08.25,1.09,1.09,0,0,1,.07.25c0,.11,0,.23,0,.38s0,.27,0,.37,0,.22-.07.33a1.26,1.26,0,0,0,0,.33.54.54,0,0,0,.08.28.86.86,0,0,1,.11.28,1.32,1.32,0,0,1,0,.48,2,2,0,0,0,0,.49.36.36,0,0,0,0,.19.46.46,0,0,1,0,.21.49.49,0,0,1,0,.24.34.34,0,0,0,0,.2,2.17,2.17,0,0,0,.19.56,1.54,1.54,0,0,1,0,.54.68.68,0,0,0,0,.4.69.69,0,0,1,0,.22,4.39,4.39,0,0,1,0,.89,2.44,2.44,0,0,0,.1.89.38.38,0,0,0-.07.21.24.24,0,0,1-.06.17,2.34,2.34,0,0,1,.16.47.66.66,0,0,1,0,.21.78.78,0,0,0,0,.22.81.81,0,0,0,0,.25l.06.19a.69.69,0,0,1,0,.22.85.85,0,0,0,0,.25,1.41,1.41,0,0,0,0,.2,1.65,1.65,0,0,1,0,.21c0,.16,0,.31,0,.45a1.68,1.68,0,0,1,0,.39l-.08.16a.41.41,0,0,0-.05.18c0,.11,0,.22,0,.35s0,.24,0,.34a.74.74,0,0,0,0,.34.61.61,0,0,1,0,.16c0,.13,0,.26-.07.41a1.9,1.9,0,0,0,0,.37c.08.23.13.4.16.5a1.58,1.58,0,0,0,.09.31.64.64,0,0,1,0,.25,1.29,1.29,0,0,0,0,.25.63.63,0,0,0,0,.22c0,.09,0,.16-.11.22a2.47,2.47,0,0,1,.28.28.58.58,0,0,1,0,.5.34.34,0,0,1-.26.27.56.56,0,0,0-.33.2c-.36-.08-.66-.14-.91-.17a2.91,2.91,0,0,1-.69-.17l-.25.06-.25.06h-.26a.22.22,0,0,1-.17-.06.33.33,0,0,1-.25.13l-.41,0a.94.94,0,0,0-.33,0l-.11.06a.73.73,0,0,1-.28,0,1,1,0,0,0-.31,0l-.35,0a.57.57,0,0,1-.34-.08.28.28,0,0,1-.23-.33.74.74,0,0,0-.11-.45.5.5,0,0,1,.14-.3.22.22,0,0,0,0-.29l.19-.24a1.19,1.19,0,0,0,.16-.23,1,1,0,0,0,.06-.35.75.75,0,0,1,.06-.31.3.3,0,0,0,0-.22.81.81,0,0,1,0-.25,3,3,0,0,1,0-.42.67.67,0,0,0-.09-.42.92.92,0,0,0,.09-.39v-.36a.73.73,0,0,0,0-.38.63.63,0,0,1,0-.22.72.72,0,0,1,.06-.29.63.63,0,0,0,.07-.3,1.18,1.18,0,0,1-.07-.51,1.16,1.16,0,0,0,0-.27,1.09,1.09,0,0,0-.1-.47c0-.25,0-.45,0-.61s0-.32,0-.48a6.11,6.11,0,0,1,0-.64,3,3,0,0,0-.06-.64,3.74,3.74,0,0,1,0-1.16,1.15,1.15,0,0,0-.16-.88,2.07,2.07,0,0,0,0-1,1.88,1.88,0,0,1,0-.93c0-.13,0-.19-.1-.21s-.11-.06-.09-.17v-.51a1.88,1.88,0,0,0-.06-.49,1.52,1.52,0,0,1-.11-.86c0-.38,0-.71.07-1,0-.1-.07-.18-.1-.24a.56.56,0,0,1-.08-.23.94.94,0,0,1,0-.5,2.93,2.93,0,0,0,.11-.53,2,2,0,0,0,0-.42,1.39,1.39,0,0,1,0-.36,2.11,2.11,0,0,0,0-.6,3.5,3.5,0,0,1-.06-.62l-.75.08-.78.07a3.1,3.1,0,0,0-.61,0l-.55.07a2.38,2.38,0,0,1-.72.11,3.11,3.11,0,0,0-.53,0,7.47,7.47,0,0,0-.76.17,1.66,1.66,0,0,1-.83,0,.82.82,0,0,1-.13-.55,1.9,1.9,0,0,0,0-.48,1.39,1.39,0,0,1,0-.27v-.29c0-.17,0-.27,0-.32l-.08-.09a1,1,0,0,1,0-.34,2.26,2.26,0,0,0,0-.35.18.18,0,0,0-.11-.19c-.07,0-.1-.08-.08-.18a4,4,0,0,0,0-.47l-.06-.52a1.39,1.39,0,0,1,0-.5.81.81,0,0,1,.2-.39,1.77,1.77,0,0,1,.31-.08,1.36,1.36,0,0,1,.41,0,3.65,3.65,0,0,1,.59.13l.34.09.21,0a1,1,0,0,1,.26,0,1.14,1.14,0,0,1,.28,0,1.29,1.29,0,0,0,.29,0,1.14,1.14,0,0,0,.28,0l.12,0a.81.81,0,0,0,.31-.06.91.91,0,0,1,.32-.06,1.55,1.55,0,0,1,.37,0,2.57,2.57,0,0,0,.38.08h.18l.22,0a1.67,1.67,0,0,0,.39,0l.21-.06a.47.47,0,0,1,.17,0,.47.47,0,0,0,.17,0,1.66,1.66,0,0,1,.66-.1,1,1,0,0,0,.5,0,.21.21,0,0,1,.17.07.28.28,0,0,0,.14.09,1.7,1.7,0,0,1,.3-.08c.07,0,.15,0,.23.14a1.65,1.65,0,0,1,.25-.15.71.71,0,0,1,.31-.07.56.56,0,0,1,.32,0,8.35,8.35,0,0,0,.79.08q.27,0,.36.09l.28,0,.25,0a2.85,2.85,0,0,1,.53,0,.52.52,0,0,1,.18,0l.2.06a1.54,1.54,0,0,0,.53,0l.53,0c.29,0,.59,0,.89-.1a1.16,1.16,0,0,1,.71,0,1,1,0,0,1,.2.19,1.3,1.3,0,0,1,.17.22.44.44,0,0,1,0,.19v.21a5.2,5.2,0,0,1,0,.88,5.88,5.88,0,0,0,0,.94,2.42,2.42,0,0,0,0,.47C1445.37,1028.76,1445.39,1028.9,1445.42,1029Z"/>
      </g>
    </g>
  </g>
  
</svg>
